<?xml version="1.0" encoding="UTF-8"?>
<svg id="Layer_2" data-name="Layer 2" xmlns="http://www.w3.org/2000/svg" xmlns:xlink="http://www.w3.org/1999/xlink" viewBox="0 0 1522.86 349.02">
  <defs>
    <style>
      .cls-1 {
        fill: #fff;
      }

      .cls-2 {
        fill: none;
      }

      .cls-3 {
        fill: #d3dfec;
      }

      .cls-4 {
        fill: #4f3519;
      }

      .cls-5 {
        fill: #bf3831;
      }

      .cls-6 {
        fill: #633f1a;
      }

      .cls-7 {
        fill: #edbf9f;
      }

      .cls-8 {
        fill: #993729;
      }

      .cls-9 {
        fill: #de9f76;
      }

      .cls-10 {
        fill: #010101;
      }

      .cls-11 {
        clip-path: url(#clippath);
      }
    </style>
    <clipPath id="clippath">
      <path class="cls-2" d="M1096.54,190.07l-12-31.67-10.96-18.74-13.57-16.69-10.96-11.2-14.69-7.54-14.9-5.42-15.94-88.62c-1.21-6.73-7.65-11.21-14.39-10l-274.82,49.42c-6.73,1.21-11.21,7.65-10,14.39l9.2,51.16-21.35,19.54-16,33.91-5.39,24.63v21.43l11.65,12.48,15.48,16.69,12,8.93,14.01,6.37,11.04,3.45,5.27,1.08,13.51,75.13c1.21,6.73,7.65,11.21,14.39,10l274.82-49.42c6.73-1.21,11.21-7.65,10-14.39l-4.22-23.44,12.32-2.41,20.87-20.25,13.57-19.52,3.65-11.89-2.61-17.42Z"/>
    </clipPath>
  </defs>
  <g id="Layer_1-2" data-name="Layer 1">
    <g>
      <g>
        <g>
          <rect class="cls-3" x="917.95" y="5.44" width="92.29" height="92.29" rx="12.7" ry="12.7" transform="translate(6.09 171.45) rotate(-10.19)"/>
          <rect class="cls-1" x="813.76" y="24.18" width="92.29" height="92.29" rx="12.7" ry="12.7" transform="translate(1.13 153.3) rotate(-10.19)"/>
          <rect class="cls-3" x="709.58" y="42.91" width="92.29" height="92.29" rx="12.7" ry="12.7" transform="translate(-3.83 135.16) rotate(-10.19)"/>
          <rect class="cls-1" x="728.32" y="147.1" width="92.29" height="92.29" rx="12.7" ry="12.7" transform="translate(-21.98 140.12) rotate(-10.19)"/>
          <rect class="cls-3" x="832.49" y="128.37" width="92.29" height="92.29" rx="12.7" ry="12.7" transform="translate(-17.02 158.26) rotate(-10.19)"/>
          <rect class="cls-3" x="747.05" y="251.29" width="92.29" height="92.28" rx="12.7" ry="12.7" transform="translate(-40.12 145.08) rotate(-10.19)"/>
          <rect class="cls-1" x="851.23" y="232.56" width="92.29" height="92.28" rx="12.7" ry="12.7" transform="translate(-35.16 163.23) rotate(-10.19)"/>
          <rect class="cls-3" x="955.42" y="213.82" width="92.29" height="92.28" rx="12.7" ry="12.7" transform="translate(-30.2 181.37) rotate(-10.19)"/>
          <rect class="cls-1" x="936.68" y="109.63" width="92.29" height="92.29" rx="12.7" ry="12.7" transform="translate(-12.05 176.41) rotate(-10.19)"/>
        </g>
        <g class="cls-11">
          <g>
            <g>
              <path class="cls-4" d="M870.07,27.6c3.83-1.67,8.1-1.86,12.2-1.5,6.78.75,13.31,3.06,19.38,6.13,13.3,6.85,24.83,16.81,34.6,28.07,4.55,5.49,8.95,11.22,12.08,17.66.14.03.41.08.54.11,1.32-2.26,2.27-4.75,2.54-7.36.17-2.68-.17-5.38.19-8.05,1.87.93,2.19,3.18,2.54,5.02.94,4.93-.39,9.89-1.8,14.6-.11.11-.31.33-.42.45,2.73-.5,5.22-1.89,7.87-2.68,1.59-.4,3-1.42,4.66-1.5-3.23,2.71-6.28,5.64-9.64,8.19.04.3.09.61.14.91,4.61,2.37,8.39,6.7,9.45,11.85,1.08,4.49.4,9.17-.84,13.56-1.72,5.94-4.49,11.52-7.53,16.88-6.94-1.15-14.4,1.2-19.15,6.45-1.71,1.42-2.12,3.69-2.76,5.71-.87-.53-1.71-1.13-2.67-1.45-2.95,1.25-3.53,4.79-5.57,6.98-.16-.09-.47-.28-.62-.37-.45.76-.9,1.52-1.35,2.27-.1-.24-.3-.73-.4-.98,2.9-7.12,5.96-14.18,8.43-21.47,2.25-5.93,5.07-11.63,7.17-17.61,1.1-3.3,2.34-6.78,1.74-10.31-.58-2.74-2.95-4.63-5.36-5.77-4.62-2.34-9.96-3.1-14.17-6.25-3.27-2.12-5.77-5.42-9.48-6.83-2.32-.88-4.86-1.03-7.31-.69-10.28,1.02-20.08,4.82-30.38,5.73-7.88.92-16.01-.91-22.79-5.02-6.38-3.95-11.68-10.4-12.74-17.99.89.19.92,1.25,1.3,1.92.57,1.68,2.12,2.71,3.53,3.65,2.47,1.52,5.52.77,8.1-.02,4.71-1.7,8.53-5.11,12.98-7.31,1.44-.65,3.28-1.14,4.71-.22,1.79,1.31,2.83,3.37,3.58,5.4,1.22,3.25.86,6.89,2.35,10.06,3.09-7.69,5.29-15.8,9.59-22.95.4-.72,1.09-1.2,1.73-1.7,1.6,1.34,1.91,3.46,2.4,5.37.59,2.33.21,4.77.79,7.1.62-.64,1.17-1.34,1.61-2.11,1.45-2.54,3.18-4.97,5.42-6.87,1.09-.87,2.51-1.79,3.95-1.23,3.93.98,5.93,4.82,7.88,8,1.74,2.98,4.08,6.11,7.65,6.88,3.38.22,6.78.01,10.17.07-3.63-1.82-7.04-4.06-10.23-6.57-1.74-1.39-2.91-3.33-4.09-5.19-2.09-3.36-2.65-7.38-4.35-10.9-.96-2.43-4.14-2.77-6.31-1.98-3.48,1.09-5.57,4.24-8.16,6.57-.57.6-1.42.67-2.17.82-2.39-3.98-1.24-9.19-4.26-12.92-.46,0-.91,0-1.36,0-1.64,3.63-3.26,7.33-5.62,10.56-1.15,1.59-3.07,3.18-5.16,2.52-2.42-1.1-3.12-3.9-4.41-6-.72.18-1.46.34-2.12.7-3.08,1.68-5.77,3.96-8.87,5.61-2.67,1.52-6.16,1.58-8.82.02,2.91-5.08,5.71-10.25,9.14-15.01,2.73-3.74,6.15-7.21,10.51-8.97Z"/>
              <path class="cls-4" d="M881.13,106.01c3.86-3.11,8.85-4.74,13.79-4.67,4.38-.24,8.77,1.49,12.03,4.39,3.09,2.73,4.89,6.73,5.34,10.8-1.58-.92-2.94-2.15-4.46-3.16-3.93-2.74-8.46-4.96-13.32-5.17-4.7-.28-8.92,2.58-13.59,2.54-1.12.08-1.57-1.06-1.9-1.92.51-1.06,1.15-2.08,2.1-2.8Z"/>
              <path class="cls-4" d="M840.52,103.22c4.81-2.46,11.23-2.77,15.59.79,1.56,1.45,3,3.95,1.76,6.01-2.74-.07-4.93-1.85-7.35-2.87-1.89-.84-4.03-.83-6.05-.61-2.87.47-4.94,2.73-7.58,3.76-.7.45-1.31,1-1.98,1.48.04-1.39.98-2.5,1.66-3.64,1.19-1.73,2.3-3.59,3.96-4.91Z"/>
            </g>
            <g>
              <path class="cls-8" d="M843.68,40.19c1.99-1.97,4.45-3.54,7.18-4.22-1.2,2.68-2.27,5.43-2.63,8.37-.27,2.38-.03,5.07,1.57,6.96.2.09.41.18.61.27,2.66,1.56,6.15,1.5,8.82-.02,3.09-1.65,5.79-3.93,8.87-5.61.66-.36,1.4-.51,2.12-.7,1.3,2.09,1.99,4.9,4.41,6,2.09.66,4.01-.93,5.16-2.52,2.35-3.24,3.97-6.94,5.62-10.56.45,0,.9,0,1.36,0,3.02,3.73,1.87,8.94,4.26,12.92.76-.14,1.6-.22,2.17-.82,2.58-2.33,4.68-5.48,8.16-6.57,2.17-.78,5.35-.45,6.31,1.98,1.71,3.53,2.26,7.55,4.35,10.9,1.18,1.86,2.35,3.79,4.09,5.19,3.19,2.51,6.6,4.75,10.23,6.57-3.39-.06-6.79.14-10.17-.07-3.57-.77-5.91-3.9-7.65-6.88-1.95-3.18-3.95-7.02-7.88-8-1.44-.56-2.86.36-3.95,1.23-2.24,1.9-3.97,4.33-5.42,6.87-.44.78-.99,1.48-1.61,2.11-.59-2.33-.2-4.77-.79-7.1-.48-1.91-.8-4.03-2.4-5.37-.64.5-1.33.98-1.73,1.7-4.3,7.15-6.5,15.26-9.59,22.95-1.49-3.17-1.13-6.8-2.35-10.06-.75-2.03-1.78-4.1-3.58-5.4-1.43-.92-3.27-.43-4.71.22-4.46,2.2-8.27,5.61-12.98,7.31-2.59.79-5.63,1.53-8.1.02-1.4-.94-2.95-1.97-3.53-3.65-.38-.67-.41-1.73-1.3-1.92l-.18-.08c-.14-2.42-.71-4.83-.42-7.27.47-5.29,2-10.77,5.66-14.77Z"/>
              <path class="cls-8" d="M798.42,203.07c1.3-.96,2.57-2.14,4.26-2.31-1.27,2.26-3.97,3.24-5.13,5.59-3.17,5.16-6.43,10.31-8.78,15.91-2.94,6.51-4.92,13.44-5.82,20.53-.75,7.32.72,14.98,4.74,21.2,3.13,5.66,8.5,10.25,14.85,11.78.7.11,1.19.57,1.35,1.27-6.49-.61-12.76-3.13-17.83-7.21-1.09-.96-1.95-2.29-3.4-2.73-.02-.49.21-1.09-.35-1.31l-.11-.08c-.45-1.45-.89-2.92-1.17-4.41-.59.03-1.19.06-1.78.1-2.99.16-5.96.56-8.94.72-1.23.02-2.55.65-3.71.08-.35-.56.12-1.11.3-1.64,5.24-11.64,10.23-23.42,14.13-35.59.41-1.05.87-2.08,1.23-3.15.46-.14,1.17.15,1.48-.36,1.08-1.55,1.66-3.38,2.64-4.99,3.06-5.22,7.15-9.86,12.05-13.41Z"/>
              <path class="cls-8" d="M940.93,220.59c-.06-.5.28-.86.56-1.21.61,2.96.7,6.06,1.91,8.88,2.51,5.99,5.41,12.43,11.15,15.98,2.99,1.78,6.05,3.62,9.5,4.32,3.46.86,7.04.85,10.57,1.11,1.96.14,3.92-.16,5.86-.39,2.4,4.57,4.65,9.23,7.65,13.44,1.62,2.21,2.98,4.67,5.01,6.53,1.74.09,3.86-.17,4.81-1.84.25.47.48.95.72,1.43l.16.33c-1.85.38-3.7.75-5.53,1.23-5.09.42-10.32,1.38-15.36.05-2.62,6.54-6.35,12.67-11.32,17.69-6.86,7.27-15.26,13.04-24.41,17.02-5.13,2.09-10.53,3.38-15.8,5.08-1.03.37-2.15.61-3.04,1.26-2.6,3.47-4.63,7.39-7.62,10.57-1.6,1.75-3.16,3.55-4.95,5.1-10.92,7.86-24.19,11.96-37.45,13.54-9.62,1.27-19.47.69-28.86-1.73-6.92-1.53-12.93-5.6-19.68-7.57-.05-.54-.25-1-.6-1.39-1.34-1.7-2.98-3.12-4.41-4.73,2.04.21,3.07,2.19,4.35,3.54,1.45,1.87,3.59,3.22,5.97,3.51.12-.13.36-.4.48-.53-1.22-2.15-2.84-4.06-3.97-6.26-2.17-4.15-4.74-8.06-6.94-12.19-.42-.78-.67-1.63-.89-2.48,1.14,1.31,1.9,2.87,2.88,4.29,1.98,2.92,4.35,5.54,6.8,8.06,2.81,3.13,5.99,5.94,9.45,8.33,1.88,1.18,3.87,2.44,6.16,2.52,2.04.11,4.32.03,5.93-1.41,1.93-1.5,2.52-4.07,2.51-6.4-.04-3.65-1.87-7.04-4.26-9.7-2.09-2.2-5.06-3.37-8.08-3.27,2.02-1.13,3.85-2.54,5.63-4.02-1.84-5.23-4.56-10.17-5.66-15.64-.49-2.06-.46-4.2-.91-6.26-.69-.47-1.57-.31-2.35-.31-5.01.38-10.07,1.03-14.8,2.8-2.77,1.03-5.26,2.82-8.2,3.37,1.02-2.17,3.07-3.56,4.88-5.02,7.77-5.45,17.68-7.61,27.05-6.35,6.66.61,13.2,2.59,19.05,5.82,2.73,1.37,4.99,3.45,7.32,5.39.71.59,1.22,1.37,1.68,2.16-2.89-1.18-5.64-2.67-8.55-3.79-4.23-1.58-8.6-2.72-13.03-3.56-3.76-.88-7.63-1.09-11.48-.89-.33,8.94,4.08,17.94,11.41,23.1,2.96,2.03,6.54,2.68,9.84,3.93-.82.86-2.08.61-3.14.75-2.15.1-4.46.5-6.1,1.99-.98.79-.52,2.15-.28,3.17.87,3.01,1.98,5.99,3.57,8.71.65,1.15,1.54,2.16,2.63,2.91,2.96,2.09,6.37,3.87,10.09,3.83,3.78,0,7.91.17,11.16-2.09,1.93-1.21,2.82-3.58,2.78-5.79-.3-3.67-1.48-7.18-2.62-10.65,1.47.66,1.94,2.35,2.85,3.56,1.86,3.01,3.97,6.49,7.75,7.22,2.31.18,4.55-.82,6.51-1.97,7.11-4.63,12.06-11.79,16.18-19.06,2.46-5.23,4.76-10.61,5.87-16.3.39-1.87-.12-4.18-1.7-5.32-4.21-.49-8.49-.16-12.73-.47-6.47-.47-12.94.66-19.4.07-1.11-.18-2.53.47-3.37-.46,5.34-.5,10.59-1.71,15.85-2.75,9-2.57,17.79-6.32,25.23-12.09,4.37-3.24,7.99-7.41,11.02-11.91,4.34-6.4,6.13-14.11,7.12-21.67.39-3.16-.42-6.3-.32-9.47.07-1.89-.06-3.78-.05-5.67Z"/>
              <path class="cls-8" d="M841.72,237.5c.78-.08,1.55-.21,2.33-.3-1.86,2.66-2.39,5.91-3.36,8.94-1.36,4.09-1.6,8.42-2.26,12.65-.46,3.2.34,6.38.46,9.57-1.31-1.23-1.47-3.11-1.7-4.79-.53-7.55.21-15.32,3.28-22.3.6-1.19,1.48-2.36,1.25-3.77Z"/>
            </g>
            <g>
              <path class="cls-7" d="M904.53,79.59c2.45-.34,4.99-.19,7.31.69,3.71,1.41,6.21,4.71,9.48,6.83,4.21,3.15,9.55,3.91,14.17,6.25,2.41,1.14,4.78,3.03,5.36,5.77.61,3.53-.64,7.01-1.74,10.31-2.1,5.99-4.92,11.68-7.17,17.61-2.47,7.29-5.53,14.35-8.43,21.47-1.16,2.65-2.39,5.28-4.03,7.67-2.1,3.19-3.95,6.73-7.13,9-3.38,2.45-7.45,3.79-11.52,4.55-2.37.47-4.96.15-6.9-1.38-2.85-2.23-5.13-5.11-8.04-7.27-5.15-3.95-11.32-6.29-17.59-7.74-.31-.25-.61-.5-.91-.76.35-1,1.08-2.11.53-3.17-1.03-2.22-2.75-4-4.34-5.82-1.25-1.37-1.87-3.21-3.27-4.46.74,3.25,2.76,5.96,4.5,8.73.42.64.57,1.4.75,2.14-4.54.02-8.99.95-13.43,1.74-2.32.32-4.82.8-7.05-.17-1.77-.72-2.21-2.87-2.12-4.58.03-2.37,1.44-4.54,3.4-5.81,2.86-1.87,5.85-3.73,7.95-6.49,4.54-5.9,6.69-13.24,7.95-20.46-.56.59-1.11,1.19-1.43,1.95-1.68,3.86-3.04,7.86-4.94,11.62-1.48,2.56-2.6,5.43-4.74,7.55-2.29,2.14-5.1,3.64-7.38,5.79-1.42,1.24-1.87,3.26-3.48,4.32-4.42-.47-8.95.6-12.62,3.14-.06-1.5.28-2.95.72-4.37,1.09-4.31,2.42-8.55,3.55-12.84,1.74-5.52,2.82-11.23,4.68-16.71.38-1.27.82-2.55.93-3.88-.17-.13-.49-.38-.66-.51,2.65-1.03,4.71-3.28,7.58-3.76,2.02-.21,4.16-.22,6.05.61,2.42,1.03,4.61,2.81,7.35,2.87,1.25-2.06-.19-4.56-1.76-6.01-4.36-3.56-10.78-3.25-15.59-.79.95-3.15,2.62-5.99,3.9-9.01,1.98-4.09,3.87-8.22,5.82-12.34.3-.58.72-1.07,1.12-1.58,6.78,4.11,14.91,5.94,22.79,5.02,10.3-.91,20.1-4.71,30.38-5.73ZM881.13,106.01c-.95.72-1.59,1.74-2.1,2.8.33.86.78,2.01,1.9,1.92,4.67.04,8.89-2.81,13.59-2.54,4.86.2,9.39,2.43,13.32,5.17,1.51,1.01,2.88,2.24,4.46,3.16-.45-4.07-2.25-8.07-5.34-10.8-3.26-2.9-7.65-4.63-12.03-4.39-4.94-.07-9.94,1.56-13.79,4.67ZM839.24,123.67c.12,4.09,3.47,8.39,7.81,8.36,2.32.17,4.55-1.01,6.13-2.63,1.17-1.16,1.55-2.84,2.61-4.08-.22-.2-.44-.39-.65-.58-1.85,1.64-3.85,3.3-6.38,3.7-3.48.56-6.8-1.31-9.01-3.88-.17-.29-.35-.59-.52-.88ZM880.83,128.36c.74,2.43,1.83,4.84,3.63,6.68,1.47,1.43,3.31,2.48,5.27,3.06,3.74,1.05,7.93-.35,10.52-3.18,1.38-1.44,2.05-3.36,2.98-5.08-.16.02-.47.05-.64.06-1.75,1.73-3.98,2.89-6.32,3.62-3.87,1.09-8.2.56-11.56-1.7-1.49-.92-2.59-2.3-3.89-3.45Z"/>
              <path class="cls-7" d="M740.26,105.54c7.75-2.12,15.65-3.78,23.65-4.51,2.98-.03,5.95-.68,8.93-.27,3.28.35,6.96.43,9.53,2.79,2.73,2.48,4.49,5.82,6.26,9.01,1.56,2.7,2.69,5.62,3.76,8.54.69,2.03,1.42,4.16,1.11,6.33-.43,2.17-2.14,3.68-3.49,5.31.81,1.34,1.97,2.47,2.54,3.95.35,1.67-.76,3.27-2.05,4.23-1.84,1.42-4.29,2.37-6.61,1.75-3.22-.5-6.24-1.73-9.32-2.73,1.27-1.57,2.63-3.35,4.71-3.84,2.64-.59,5.47-.92,7.76-2.49,2.37-2.33,3.11-5.87,2.76-9.09-.31-2.49-.78-5.16-2.54-7.07-1.11,3.45.09,7.12-.69,10.58-1.75,1.46-4,2.48-6.3,2.55.28-2.99.65-6.05-.12-9.01-.79-3.04-1.86-6.12-3.87-8.59.6,3.45,1.81,6.78,1.87,10.32.23,3.06-.12,6.5-2.39,8.79-1.58,1.56-3.9,2.02-6.05,1.91.29-2.32,1-4.61.84-6.97-.12-3.21-1.13-6.31-2.33-9.26-.5-1.14-.95-2.44-2.09-3.08,1.11,4.91,3.16,9.97,1.84,15.06-.98,4.51-6.16,7.76-10.6,6.04-2.5-.59-3.96-3.34-3.65-5.77.35-1.32,1.05-2.51,1.42-3.83-1.92,1.03-3.75,2.41-5.98,2.68-3.59.45-7.3-.87-9.89-3.37-2.04-1.67-3.59-3.9-5.86-5.29,1.7,4.52,4.04,9.09,3.59,14.07-.49,5.12-3.37,9.57-4.74,14.46-.59,2.06.03,4.17.53,6.18.98,4.08,2.15,8.18,2.12,12.42.02,9.6-3.46,18.78-7.75,27.23-.95,2.1-2.34,3.96-3.19,6.1.63-.32,1.3-.62,1.78-1.17,3.39-3.76,6.3-7.93,8.96-12.23,1.02-1.6,1.72-3.37,2.5-5.09-.06.4-.17,1.19-.22,1.59.53-.03,1.08-.02,1.55-.29,3.98-1.98,7.97-4.1,12.38-4.97,9.74-2.12,20.57-.06,28.35,6.34,1.1.88,2.26,1.75,2.95,3,.22-.05.45-.1.68-.15,2.18,3.4,2.69,7.49,2.84,11.45-.14,7.69-1.66,15.27-3.46,22.73-.35,1.07-.82,2.1-1.23,3.15-3.46.24-6.82,1.25-10.3,1.35-4.89.17-9.84.35-14.66-.67-5.22-.75-10.14-2.95-14.53-5.81-5.1-3.34-7.96-8.92-11.25-13.85.01.66.01,1.32.19,1.96,1.06,3.61,2.4,7.19,4.64,10.26,5.62,8.05,14.41,13.14,23.39,16.63-2.28,3.24-4.64,6.98-8.6,8.29-3.99.86-8.14-.14-11.87-1.6-6.22-2.54-11.96-6.13-17.2-10.31-1.84-1.56-3.79-3.04-5.3-4.94,2.59-1.81,4.57-4.29,6.91-6.39-5.52.78-10.96,2.37-16.58,2.31-5.29.21-10.72-.25-15.61-2.39-2.14-1.11-4.46-2.28-5.73-4.42-1.57-2.63-2.28-5.77-2.03-8.82,1.7,1.18,2.94,2.86,4.43,4.28,1.29,1.19,2.31,2.91,4.18,3.2-.23-1.81-1.31-3.3-2.08-4.9-2.82-5.63-4.32-11.85-5.1-18.08-.64-6.51-.03-13.07.94-19.51.79-4.88,2.59-9.51,4.26-14.14.59-1.69,1.59-3.25,1.73-5.07.06-.56.45-1,.72-1.46,5.43-8.11,12.1-15.26,18.58-22.51,5.45-5.59,10.82-11.3,16.9-16.22,3.78-3.26,8.42-5.33,13.2-6.63ZM750.44,120.25c1.23.8,2.81.97,3.85,2.05,1.33,1.29,2.36,2.85,3.15,4.51.45.8.8,1.87,1.81,2.09-.16-2.59-.39-5.38-1.9-7.57-1.46-2.27-4.78-2.23-6.92-1.09Z"/>
              <path class="cls-7" d="M986.46,101.6c4.8-1.7,9.96-.94,14.89-.4,9.39,1.29,18.58,3.77,27.58,6.71,3.65,1.17,7.16,2.79,10.27,5.06,5.38,4.18,10.11,9.1,14.87,13.96,7.3,7.86,14.43,15.95,20.63,24.73.77,1.32,1.95,2.48,2.35,3.98.26,2.21,1.67,4.05,2.3,6.15,1.72,5.25,3.7,10.48,4.41,15.99.44,3.71,1.12,7.41,1.03,11.17.28,8.74-1.3,17.58-4.88,25.58-.72,1.7-1.6,3.32-2.29,5.03,3.87-1.82,6.18-5.57,8.95-8.64,1.09,2.42,1.27,5.32-.05,7.69-1.79,3.46-5.47,5.3-8.92,6.73-3.51,1.3-7.24,1.95-10.96,2.24-3.41.27-6.81-.24-10.2-.59-3.73-.39-7.36-1.46-11.06-2.02,2.21,1.98,4.1,4.3,6.43,6.16-2.79,3.9-6.66,6.92-10.62,9.56-5.68,3.58-11.73,6.87-18.37,8.21-2.07.23-4.24.42-6.27-.13-3.79-1.55-6.15-5.1-8.6-8.18,1.6-1.3,3.57-1.95,5.4-2.83,6.28-3.09,12.46-6.75,17.15-12.05,2.05-2.43,3.98-5.05,5-8.1.64-1.98,1.83-3.91,1.62-6.06-2.28,4.3-5.34,8.19-9.03,11.37-5.67,4.66-12.77,7.27-19.95,8.45-4.61.85-9.33.69-13.98.33-4.76-.25-9.42-1.38-14.07-2.39-.61-3.54-.62-7.13-.78-10.7.09-7.57.38-15.28,2.72-22.54.57-1.83,1.38-3.58,2.51-5.13-.13-.11-.39-.34-.52-.45,1.47-.23,2.23-1.6,3.35-2.42,5.03-4.04,11.49-5.85,17.8-6.65,3.12-.49,6.29-.18,9.38.31,5.28,1.29,10.3,3.45,15.37,5.39.06-.21.2-.62.26-.83,2.37,5.35,5.68,10.31,9.86,14.43,1.04,1.14,2.06,2.33,3.4,3.14-2.57-4.54-4.99-9.18-6.92-14.04-1.91-5.09-3.25-10.41-3.96-15.8-.16-4.79-.45-9.72.98-14.37.64-2.31,2.05-4.65,1.2-7.1-1.56-4.89-3.74-9.61-4.79-14.65-.63-3.01-.32-6.16.8-9,.81-2.4,2.21-4.55,2.9-6.99-2.95,2.15-5.13,5.26-8.42,6.95-3.09,1.86-6.97,1.97-10.31.76-1.55-.66-2.83-1.77-4.29-2.59.78,1.53,2.27,2.95,1.98,4.81-.08,2.84-2.63,4.94-5.24,5.51-3.07.54-6.49-.89-8.02-3.66-1.9-3.11-1.66-6.95-1.24-10.42.27-2.51,1.03-4.91,1.51-7.38-1.49,1.23-2.16,3.1-2.87,4.84-1.01,2.54-1.55,5.28-1.39,8.01.06,1.81.44,3.61.37,5.42-3.43,1.15-7.02-1.84-7.78-5.13-1.21-5.44.64-10.89,1.98-16.12-1.82,1.52-2.72,3.78-3.65,5.89-1.69,3.82-.71,8.08-1.26,12.1-2.43,0-4.97-1.23-6.32-3.26-.81-3.4-.26-6.98-.37-10.45-.47.5-1.02.98-1.26,1.64-1.37,3.58-1.72,7.49-1.3,11.29.24,1.55.86,3.22,2.24,4.1,2.62,1.4,5.76,1.09,8.47,2.18,1.55,1.11,2.56,2.79,3.84,4.19.6-.03,1.2-.05,1.81-.07l.36.14c-3.15.46-6.19,1.39-9.27,2.15-3.04.79-6.38.25-9.08-1.34-1.21-.67-2.02-2.05-1.95-3.43-.07-2.14,1.58-3.73,2.45-5.54-1.89-1.38-2.96-3.6-3.15-5.91.32-2.87.84-5.76,2.04-8.42,1.7-3.77,3.69-7.43,6.13-10.77,1.87-2.33,3.91-4.74,6.78-5.83ZM1008.71,122.97c-1.26,2.15-1.83,4.68-1.79,7.16,1.61-1.58,2.66-3.59,4.09-5.32,1.37-1.55,3.55-1.92,5.05-3.29-2.32-1.21-5.94-1.1-7.35,1.45Z"/>
              <path class="cls-7" d="M936.88,136.37c4.76-5.24,12.21-7.6,19.15-6.45,3.06,3.84,4.6,8.96,3.68,13.83-.67,5.53-3.59,10.5-7.14,14.68-3.59,3.94-8.03,7.35-13.2,8.86-.08.44-.15.88-.22,1.32-.08-.31-.25-.92-.33-1.22-2.55-1.24-5.61-1.57-7.76-3.56-.32-.65-.25-1.4-.3-2.1,1.33-6.52,1.72-13.2,3.36-19.65.64-2.01,1.05-4.28,2.76-5.71ZM948.75,138.47c-4.82,1.85-8.01,6.33-10.61,10.58-.87,1.9-2.35,3.52-2.9,5.56,2.2-1.1,3.02-3.77,5.18-4.9.5,4.21-.91,8.33-.81,12.54,1.59-.57,2.34-2.24,2.98-3.67.99-2.47,1.97-5.35.78-7.92-.33-1.06-1.2-2.07-1.05-3.2,2.25-2.03,4.55-4.02,6.77-6.08.95-.92,2.23-1.42,3.09-2.43-.41-1.28-2.39-.64-3.43-.47Z"/>
              <path class="cls-7" d="M828.57,158.22c2.48-.91,5.41-.16,7.4,1.52,1.68,1.41,3.21,3.01,4.99,4.31,3.21,2.19,7.01,3.28,10.77,4.05,3.36.56,6.74,1.11,10.17,1.16,5.29.15,10.66.26,15.85-.94.88,1.8.84,3.85.88,5.8.04,2.7-.99,5.52-3.18,7.19-2.76,2.15-6.4,2.48-9.76,2.67-1.62-.12-3.54-.04-4.75-1.32-1.51-1.6-2.14-4-4.17-5.11-4.23-2.5-9.27-2.46-14.01-2.94-2.89-1.73-5.5-3.87-8.19-5.89-1.43-1.24-3.18-2.21-4.11-3.91-1.17-2.01-1.49-4.35-1.89-6.6Z"/>
            </g>
            <g>
              <path class="cls-9" d="M776.26,112.96c2.01,2.47,3.07,5.55,3.87,8.59.77,2.95.4,6.02.12,9.01,2.31-.07,4.55-1.09,6.3-2.55.78-3.46-.42-7.12.69-10.58,1.76,1.91,2.23,4.58,2.54,7.07.35,3.22-.39,6.77-2.76,9.09-2.29,1.56-5.12,1.9-7.76,2.49-2.07.48-3.44,2.26-4.71,3.84-1.81-.53-3.68-.88-5.54-1.17-2.49-.4-4.77.97-7.2,1.25-2.76.53-5.88.44-8.25-1.26-2.05-1.41-2.73-4.03-3.02-6.37-2.2,0-4.4,0-6.6.01-2.9,5.69-5.81,11.38-8.6,17.13,2.15,4.49,3.1,9.44,3.73,14.35.44,6.13.34,12.49-1.9,18.3-.78,1.72-1.48,3.48-2.5,5.09-2.67,4.3-5.57,8.47-8.96,12.23-.47.55-1.14.85-1.78,1.17.85-2.14,2.24-4,3.19-6.1,4.29-8.45,7.77-17.63,7.75-27.23.03-4.24-1.13-8.33-2.12-12.42-.5-2.01-1.11-4.12-.53-6.18,1.37-4.88,4.25-9.34,4.74-14.46.44-4.98-1.9-9.55-3.59-14.07,2.26,1.39,3.82,3.62,5.86,5.29,2.59,2.5,6.3,3.82,9.89,3.37,2.23-.27,4.05-1.65,5.98-2.68-.36,1.31-1.07,2.51-1.42,3.83-.31,2.43,1.15,5.18,3.65,5.77,4.43,1.72,9.61-1.53,10.6-6.04,1.32-5.1-.73-10.15-1.84-15.06,1.15.64,1.59,1.94,2.09,3.08,1.2,2.95,2.21,6.05,2.33,9.26.16,2.36-.54,4.65-.84,6.97,2.15.11,4.46-.35,6.05-1.91,2.27-2.29,2.62-5.73,2.39-8.79-.06-3.54-1.27-6.87-1.87-10.32Z"/>
              <path class="cls-9" d="M986.29,118.82c.94-2.11,1.84-4.37,3.65-5.89-1.35,5.23-3.2,10.68-1.98,16.12.76,3.29,4.35,6.28,7.78,5.13.07-1.81-.31-3.61-.37-5.42-.17-2.73.37-5.48,1.39-8.01.7-1.74,1.38-3.6,2.87-4.84-.49,2.46-1.25,4.87-1.51,7.38-.42,3.47-.67,7.31,1.24,10.42,1.53,2.76,4.95,4.2,8.02,3.66,2.61-.57,5.15-2.67,5.24-5.51.3-1.86-1.2-3.28-1.98-4.81,1.46.81,2.74,1.93,4.29,2.59,3.34,1.2,7.22,1.09,10.31-.76,3.3-1.69,5.48-4.81,8.42-6.95-.7,2.44-2.1,4.59-2.9,6.99-1.12,2.85-1.43,6-.8,9,1.05,5.04,3.23,9.76,4.79,14.65.86,2.45-.56,4.79-1.2,7.1-1.44,4.65-1.14,9.57-.98,14.37.71,5.39,2.05,10.71,3.96,15.8,1.93,4.86,4.35,9.5,6.92,14.04-1.34-.81-2.35-2-3.4-3.14-4.18-4.12-7.48-9.08-9.86-14.43-2.72-6.95-2.91-14.62-1.91-21.93.32-3.98,1.72-7.83,3.37-11.45-1.53-4.38-4.55-8.03-6.69-12.11-1.26-2.07-1.97-4.4-2.68-6.7-2.1,0-4.2-.03-6.3-.14-.21,2.57-1.03,5.47-3.51,6.72-4.21,2.24-9.25.65-13.17-1.48-2.45-.12-4.71,1.17-7.14,1.34-.61.02-1.22.04-1.81.07-1.28-1.39-2.28-3.08-3.84-4.19-2.72-1.1-5.85-.78-8.47-2.18-1.37-.89-2-2.55-2.24-4.1-.42-3.79-.07-7.71,1.3-11.29.25-.66.79-1.14,1.26-1.64.11,3.47-.44,7.05.37,10.45,1.35,2.03,3.89,3.26,6.32,3.26.55-4.02-.43-8.28,1.26-12.1Z"/>
              <path class="cls-9" d="M860.81,116.19c.32-.76.88-1.37,1.43-1.95-1.26,7.22-3.41,14.56-7.95,20.46-2.1,2.77-5.09,4.62-7.95,6.49-1.96,1.26-3.36,3.44-3.4,5.81-.1,1.71.34,3.86,2.12,4.58,2.23.97,4.73.5,7.05.17,4.44-.79,8.89-1.72,13.43-1.74-.18-.73-.32-1.5-.75-2.14-1.73-2.77-3.76-5.49-4.5-8.73,1.4,1.25,2.02,3.09,3.27,4.46,1.59,1.82,3.31,3.6,4.34,5.82.56,1.06-.18,2.17-.53,3.17.3.25.6.51.91.76-1.85-.39-3.69-.89-5.58-1.06-2.2-.19-4.13,1.11-6.2,1.65-4.07,1.36-8.85,1.98-12.71-.31-2.79-1.57-3.3-5.27-2.55-8.12-.25-.01-.75-.03-.99-.04,1.62-1.06,2.06-3.08,3.48-4.32,2.28-2.15,5.09-3.65,7.38-5.79,2.14-2.12,3.25-4.98,4.74-7.55,1.9-3.76,3.26-7.77,4.94-11.62Z"/>
              <path class="cls-9" d="M750.44,120.25c2.14-1.14,5.46-1.18,6.92,1.09,1.51,2.19,1.74,4.98,1.9,7.57-1.02-.22-1.37-1.29-1.81-2.09-.8-1.66-1.83-3.23-3.15-4.51-1.04-1.08-2.63-1.25-3.85-2.05Z"/>
              <path class="cls-9" d="M1008.71,122.97c1.41-2.55,5.02-2.66,7.35-1.45-1.5,1.37-3.69,1.74-5.05,3.29-1.42,1.73-2.48,3.74-4.09,5.32-.04-2.48.53-5.01,1.79-7.16Z"/>
              <path class="cls-9" d="M948.75,138.47c1.05-.16,3.02-.81,3.43.47-.86,1.01-2.15,1.52-3.09,2.43-2.23,2.06-4.52,4.05-6.77,6.08-.15,1.13.72,2.14,1.05,3.2,1.19,2.57.21,5.45-.78,7.92-.64,1.43-1.39,3.1-2.98,3.67-.1-4.21,1.31-8.33.81-12.54-2.15,1.12-2.97,3.8-5.18,4.9.55-2.04,2.03-3.65,2.9-5.56,2.6-4.25,5.79-8.73,10.61-10.58Z"/>
              <path class="cls-9" d="M690.85,152.36c-.14,1.82-1.14,3.38-1.73,5.07-1.67,4.63-3.46,9.26-4.26,14.14-.97,6.45-1.58,13.01-.94,19.51.78,6.23,2.28,12.44,5.1,18.08.77,1.6,1.85,3.09,2.08,4.9-1.87-.29-2.89-2.01-4.18-3.2-1.49-1.42-2.73-3.1-4.43-4.28-.25,3.05.46,6.19,2.03,8.82,1.28,2.15,3.59,3.32,5.73,4.42,4.89,2.14,10.32,2.59,15.61,2.39,5.62.05,11.05-1.54,16.58-2.31-2.34,2.09-4.32,4.58-6.91,6.39,1.51,1.9,3.46,3.38,5.3,4.94,5.24,4.18,10.98,7.77,17.2,10.31,3.73,1.46,7.88,2.46,11.87,1.6,3.96-1.31,6.32-5.05,8.6-8.29-8.98-3.49-17.78-8.58-23.39-16.63-2.24-3.06-3.57-6.65-4.64-10.26-.17-.64-.17-1.31-.19-1.96,3.29,4.93,6.15,10.51,11.25,13.85,4.39,2.87,9.31,5.06,14.53,5.81,4.82,1.03,9.77.84,14.66.67,3.48-.1,6.84-1.11,10.3-1.35-3.9,12.17-8.89,23.95-14.13,35.59-.18.53-.65,1.08-.3,1.64,1.15.56,2.48-.07,3.71-.08,2.99-.16,5.96-.56,8.94-.72-1.39.33-2.81.5-4.23.64-3.55.21-7.09.76-10.65.5-6.41.19-12.79-.7-19.06-1.93-15.18-3.1-29.2-10.62-41.16-20.34-5.15-4.15-9.72-8.94-14.35-13.65-4.07-4.4-8.39-8.6-11.83-13.52-1.37-2.41-2.39-5.38-1.36-8.1.75-2.61,2.86-4.44,4.37-6.59.59-.77.47-1.77.36-2.67-.3-1.97-.19-3.97-.5-5.93-.45-3.41,0-6.84.44-10.22,1.2-7.52,3.62-14.79,6.64-21.77.83-1.89,1.75-3.75,2.93-5.44Z"/>
              <path class="cls-9" d="M1079.36,161.78c-.63-2.1-2.04-3.94-2.3-6.15,2.99,4.43,4.89,9.5,6.75,14.49,2.13,6.08,3.6,12.42,4.11,18.84.33,4.25-.59,8.5-.15,12.74.23,1.02,1.14,1.66,1.79,2.42,2.76,3.16,4.46,7.56,3.29,11.74-1.29,4.2-4.33,7.54-7.19,10.75-6.3,6.46-13.17,12.34-20.29,17.87-8.11,6.25-16.5,12.36-25.99,16.37-6.86,3.04-14.1,5.28-21.53,6.32-6.25,1.03-12.57,1.5-18.86,2.15l-.31-.46c-.24-.48-.47-.97-.72-1.43-1.23-1.46-2.71-2.68-3.96-4.12-1.81-2.07-3.27-4.41-4.65-6.78-4.89-8.32-7.91-17.67-9.25-27.21,4.65,1.01,9.31,2.14,14.07,2.39,4.65.35,9.37.51,13.98-.33,7.19-1.17,14.29-3.79,19.95-8.45,3.69-3.18,6.75-7.07,9.03-11.37.21,2.15-.98,4.08-1.62,6.06-1.02,3.05-2.95,5.67-5,8.1-4.69,5.29-10.87,8.95-17.15,12.05-1.83.88-3.8,1.53-5.4,2.83,2.45,3.08,4.82,6.63,8.6,8.18,2.03.55,4.2.36,6.27.13,6.65-1.34,12.69-4.63,18.37-8.21,3.97-2.64,7.83-5.66,10.62-9.56-2.33-1.87-4.22-4.18-6.43-6.16,3.71.56,7.33,1.63,11.06,2.02,3.38.35,6.78.86,10.2.59,3.72-.29,7.45-.94,10.96-2.24,3.45-1.43,7.13-3.26,8.92-6.73,1.32-2.37,1.14-5.27.05-7.69-2.77,3.07-5.09,6.82-8.95,8.64.7-1.71,1.57-3.34,2.29-5.03,3.58-8,5.16-16.84,4.88-25.58.09-3.76-.59-7.46-1.03-11.17-.72-5.51-2.69-10.74-4.41-15.99Z"/>
              <path class="cls-9" d="M926.09,184.1c1.99-7.36,3.29-14.88,4.68-22.37.05.7-.02,1.45.3,2.1,2.15,1.99,5.21,2.32,7.76,3.56.08.31.25.92.33,1.22-.21,1.54-.33,3.1-.32,4.66-.09,5.24-1.48,10.36-1.41,15.6.33-.05.98-.14,1.31-.18-5.6,3.64-10.85,7.76-16.21,11.73-2.17,1.58-4.1,3.47-6.4,4.87,4.8-6.24,7.98-13.61,9.96-21.19Z"/>
            </g>
            <g>
              <path class="cls-10" d="M839.24,123.67c.17.29.34.59.52.88,2.2,2.58,5.52,4.44,9.01,3.88,2.53-.4,4.52-2.06,6.38-3.7.21.19.43.39.65.58-1.06,1.23-1.44,2.92-2.61,4.08-1.59,1.62-3.82,2.8-6.13,2.63-4.34.03-7.69-4.27-7.81-8.36Z"/>
              <path class="cls-10" d="M880.83,128.36c1.3,1.15,2.4,2.52,3.89,3.45,3.36,2.26,7.69,2.79,11.56,1.7,2.33-.73,4.57-1.88,6.32-3.62.16-.01.48-.05.64-.06-.93,1.73-1.6,3.65-2.98,5.08-2.59,2.84-6.78,4.23-10.52,3.18-1.96-.58-3.8-1.63-5.27-3.06-1.8-1.84-2.89-4.24-3.63-6.68Z"/>
            </g>
            <path class="cls-6" d="M925.88,147.6c2.03-2.19,2.62-5.72,5.57-6.98.97.33,1.81.93,2.67,1.45-1.64,6.45-2.03,13.14-3.36,19.65-1.39,7.49-2.68,15.01-4.68,22.37-1.98,7.58-5.16,14.95-9.96,21.19-4.04,3.6-7.16,8.18-11.54,11.42-3.48,2.38-6.77,5.1-10.59,6.96-15.05,8.87-32.52,13.38-49.96,13.53-.78.09-1.55.22-2.33.3-3.64.64-6.42-2.07-8.98-4.17-2.48-1.72-4.32-4.15-6.58-6.1-2.48-2.2-4.9-4.48-7.2-6.86-1.07-1.09-1.9-2.39-2.61-3.74-1.92-3.54-4.04-7.11-4.71-11.15-.27-1.7-.91-3.33-.87-5.07-.01-2.68-.09-5.38.4-8.02.51-2.9.74-5.84,1.47-8.69,2.13-8.57,5.25-16.88,8.84-24.94,1.71-3.57,3.45-7.24,6.18-10.15,3.66-2.54,8.19-3.6,12.62-3.14.25,0,.74.03.99.04-.75,2.84-.24,6.55,2.55,8.12,3.86,2.29,8.64,1.67,12.71.31,2.06-.54,3.99-1.84,6.2-1.65,1.89.17,3.73.67,5.58,1.06,6.27,1.45,12.44,3.79,17.59,7.74,2.91,2.16,5.19,5.04,8.04,7.27,1.93,1.53,4.53,1.85,6.9,1.38,4.07-.76,8.14-2.1,11.52-4.55,3.18-2.26,5.04-5.8,7.13-9,1.64-2.39,2.87-5.02,4.03-7.67.1.24.3.73.4.98.45-.75.9-1.51,1.35-2.27.16.09.47.28.62.37ZM828.57,158.22c.4,2.25.72,4.59,1.89,6.6.93,1.7,2.68,2.67,4.11,3.91,2.69,2.01,5.3,4.16,8.19,5.89,4.74.47,9.78.44,14.01,2.94,2.03,1.11,2.66,3.51,4.17,5.11,1.21,1.28,3.13,1.2,4.75,1.32,3.37-.19,7.01-.52,9.76-2.67,2.18-1.67,3.22-4.5,3.18-7.19-.03-1.95,0-4-.88-5.8-5.19,1.2-10.56,1.09-15.85.94-3.42-.05-6.8-.59-10.17-1.16-3.76-.77-7.56-1.86-10.77-4.05-1.78-1.3-3.31-2.9-4.99-4.31-1.99-1.68-4.92-2.43-7.4-1.52Z"/>
            <path class="cls-5" d="M938.74,188.69c6.03-3.81,13.13-5.86,20.27-5.8l.33.23c7.6.14,14.86,2.83,21.71,5.92.99.47,2.11.75,2.98,1.46.13.11.39.34.52.45-1.13,1.55-1.94,3.3-2.51,5.13-2.34,7.27-2.63,14.97-2.72,22.54.16,3.57.17,7.16.78,10.7,1.34,9.54,4.36,18.89,9.25,27.21,1.38,2.37,2.84,4.71,4.65,6.78,1.25,1.44,2.73,2.66,3.96,4.12-.95,1.66-3.07,1.93-4.81,1.84-2.03-1.87-3.39-4.32-5.01-6.53-3-4.21-5.25-8.88-7.65-13.44-1.95.23-3.9.53-5.86.39-3.53-.27-7.11-.25-10.57-1.11-3.45-.7-6.51-2.54-9.5-4.32-5.75-3.56-8.64-9.99-11.15-15.98-1.22-2.82-1.3-5.92-1.91-8.88-.28.35-.62.72-.56,1.21-.01,1.89.12,3.78.05,5.67-.11,3.16.7,6.3.32,9.47-1,7.56-2.79,15.27-7.12,21.67-3.03,4.5-6.65,8.67-11.02,11.91-7.44,5.78-16.23,9.53-25.23,12.09-5.26,1.04-10.5,2.24-15.85,2.75.84.93,2.27.28,3.37.46,6.46.59,12.93-.54,19.4-.07,4.23.32,8.51-.01,12.73.47,1.58,1.14,2.09,3.45,1.7,5.32-1.11,5.7-3.41,11.08-5.87,16.3-4.12,7.27-9.07,14.43-16.18,19.06-1.95,1.14-4.2,2.15-6.51,1.97-3.77-.72-5.89-4.21-7.75-7.22-.91-1.21-1.38-2.9-2.85-3.56,1.14,3.48,2.32,6.98,2.62,10.65.04,2.2-.85,4.57-2.78,5.79-3.26,2.27-7.38,2.09-11.16,2.09-3.72.04-7.13-1.74-10.09-3.83-1.09-.75-1.98-1.76-2.63-2.91-1.58-2.72-2.69-5.69-3.57-8.71-.24-1.03-.7-2.38.28-3.17,1.64-1.5,3.95-1.89,6.1-1.99,1.06-.14,2.32.11,3.14-.75-3.31-1.24-6.88-1.9-9.84-3.93-7.33-5.15-11.74-14.15-11.41-23.1,3.84-.2,7.72.01,11.48.89,4.43.84,8.8,1.98,13.03,3.56,2.92,1.11,5.67,2.61,8.55,3.79-.47-.79-.98-1.57-1.68-2.16-2.33-1.94-4.59-4.02-7.32-5.39-5.85-3.23-12.4-5.21-19.05-5.82-9.36-1.26-19.28.91-27.05,6.35-1.81,1.45-3.86,2.85-4.88,5.02,2.94-.55,5.43-2.34,8.2-3.37,4.74-1.76,9.79-2.42,14.8-2.8.78,0,1.66-.17,2.35.31.45,2.06.42,4.2.91,6.26,1.1,5.47,3.82,10.41,5.66,15.64-1.77,1.48-3.6,2.89-5.63,4.02,3.03-.1,5.99,1.07,8.08,3.27,2.39,2.66,4.21,6.05,4.26,9.7.01,2.33-.58,4.9-2.51,6.4-1.61,1.44-3.89,1.52-5.93,1.41-2.28-.08-4.28-1.34-6.16-2.52-3.46-2.39-6.64-5.2-9.45-8.33-2.46-2.52-4.82-5.15-6.8-8.06-.98-1.42-1.75-2.98-2.88-4.29.22.85.47,1.7.89,2.48,2.2,4.13,4.77,8.05,6.94,12.19,1.13,2.2,2.75,4.11,3.97,6.26-.12.13-.36.4-.48.53-2.37-.3-4.51-1.64-5.97-3.51-1.28-1.35-2.31-3.33-4.35-3.54l-.26-.06c-3.04-2.99-5.82-6.23-8.75-9.33-5.79-5.94-11.76-11.75-16.85-18.31-5.08-6.55-8.71-14.22-10.48-22.32-.63-3.12-1.37-6.3-1.14-9.5.56.22.33.82.35,1.31,1.46.44,2.31,1.76,3.4,2.73,5.07,4.08,11.34,6.6,17.83,7.21-.17-.7-.65-1.15-1.35-1.27-6.35-1.53-11.72-6.12-14.85-11.78-4.03-6.22-5.5-13.88-4.74-21.2.9-7.08,2.88-14.02,5.82-20.53,2.36-5.6,5.62-10.75,8.78-15.91,1.16-2.34,3.86-3.33,5.13-5.59-1.68.17-2.95,1.34-4.26,2.31-4.9,3.55-9,8.19-12.05,13.41-.98,1.61-1.56,3.44-2.64,4.99-.31.51-1.02.22-1.48.36,1.8-7.46,3.32-15.03,3.46-22.73-.15-3.95-.66-8.05-2.84-11.45,6.57-2.93,13.71-4.64,20.93-4.45,2.96-.1,5.88.4,8.83.48-.73,2.85-.96,5.79-1.47,8.69-.49,2.65-.42,5.35-.4,8.02-.03,1.73.61,3.37.87,5.07.67,4.04,2.79,7.61,4.71,11.15.7,1.35,1.53,2.65,2.61,3.74,2.31,2.38,4.72,4.66,7.2,6.86,2.26,1.96,4.1,4.38,6.58,6.1,2.56,2.1,5.35,4.81,8.98,4.17.23,1.41-.64,2.58-1.25,3.77-3.07,6.98-3.82,14.75-3.28,22.3.22,1.68.39,3.56,1.7,4.79-.12-3.19-.92-6.36-.46-9.57.66-4.23.9-8.57,2.26-12.65.98-3.03,1.5-6.29,3.36-8.94,17.43-.14,34.9-4.66,49.96-13.53,3.82-1.86,7.1-4.57,10.59-6.96,4.38-3.25,7.49-7.82,11.54-11.42,2.3-1.4,4.23-3.29,6.4-4.87,5.36-3.97,10.62-8.09,16.21-11.73Z"/>
          </g>
        </g>
      </g>
      <g>
        <path class="cls-1" d="M181.23,222.75c0,37.8-32.82,71.94-90.84,71.94-38.46,0-74.93-13.26-89.52-47.08-2.65-6.3.99-13.59,7.62-15.91l30.17-9.28c5.3-1.66,10.94.33,13.93,5.3,5.64,9.95,17.57,18.9,37.13,18.9s33.82-7.63,33.82-22.88c0-17.57-22.54-19.89-48.74-26.52C28.39,185.61,7.17,164.4,7.17,125.6c0-44.76,37.13-71.28,85.21-71.28,35.14,0,65.31,16.25,78.24,45.09,2.98,6.63-.66,14.59-7.96,16.25l-30.17,7.63c-4.97.99-10.28-1-12.93-5.3-4.64-8.29-13.92-14.92-29.51-14.92-16.58,0-27.85,8.95-27.85,22.21,0,18.23,27.85,22.54,45.75,27.52,56.69,15.91,73.27,33.49,73.27,69.96Z"/>
        <path class="cls-1" d="M362.25,280.44l-10.28-33.15h-87.86l-10.28,33.15c-1.99,5.97-7.62,10.28-14.26,10.28h-36.14c-5.97,0-10.28-5.97-8.29-11.94l75.92-210.53c1.99-5.64,7.62-9.62,13.92-9.62h46.08c6.3,0,11.94,3.98,13.92,9.62l75.59,210.53c2.32,5.97-1.99,11.94-8.29,11.94h-35.81c-6.63,0-12.27-4.31-14.26-10.28ZM338.38,204.51l-30.5-96.81-30.17,96.81h60.67Z"/>
        <path class="cls-1" d="M652.35,174.67c0,70.95-45.75,116.04-123,116.04h-69.62c-6.3,0-11.6-5.3-11.6-11.94V70.57c0-6.63,5.3-11.94,11.6-11.94h69.62c77.25,0,123,45.09,123,116.04ZM595.66,174.67c0-41.11-28.51-62.66-66.31-62.66h-24.53v124.99h24.53c37.8,0,66.31-21.22,66.31-62.33Z"/>
      </g>
      <g>
        <path class="cls-1" d="M1298.4,288.56h-41.11c-4.97,0-9.62-2.32-12.27-6.3l-68.96-99.79v94.16c0,6.63-5.3,11.94-11.94,11.94h-33.15c-6.63,0-11.94-5.3-11.94-11.94V68.41c0-6.63,5.3-11.94,11.94-11.94h33.15c6.63,0,11.94,5.3,11.94,11.94v91.17l66.31-96.81c2.98-3.98,7.29-6.3,12.27-6.3h38.13c7.29,0,11.6,7.96,7.29,13.92l-69.96,98.14,75.59,106.09c3.98,5.64,0,13.92-7.29,13.92Z"/>
        <path class="cls-1" d="M1510.92,56.48c6.63,0,11.94,5.3,11.94,11.94v129.96c0,63.33-36.47,94.16-97.14,94.16s-96.81-30.83-96.81-94.16V68.41c0-6.63,5.3-11.94,11.6-11.94h33.49c6.3,0,11.6,5.3,11.6,11.94v124c0,30.83,14.92,45.75,40.12,45.75s40.12-14.92,40.12-45.75v-124c0-6.63,5.3-11.94,11.94-11.94h33.15Z"/>
      </g>
    </g>
  </g>
</svg>