<?xml version="1.0" encoding="UTF-8"?>
<svg id="Layer_2" data-name="Layer 2" xmlns="http://www.w3.org/2000/svg" xmlns:xlink="http://www.w3.org/1999/xlink" viewBox="0 0 667.68 544.02">
  <defs>
    <style>
      .cls-1 {
        fill: #fff;
      }

      .cls-2 {
        fill: none;
      }

      .cls-3 {
        fill: #d3dfec;
      }

      .cls-4 {
        fill: #4f3519;
      }

      .cls-5 {
        fill: #bf3831;
      }

      .cls-6 {
        fill: #633f1a;
      }

      .cls-7 {
        fill: #edbf9f;
      }

      .cls-8 {
        fill: #993729;
      }

      .cls-9 {
        fill: #de9f76;
      }

      .cls-10 {
        fill: #010101;
      }

      .cls-11 {
        clip-path: url(#clippath);
      }
    </style>
    <clipPath id="clippath">
      <path class="cls-2" d="M663.61,296.27l-18.7-49.36-17.08-29.21-21.14-26.02-17.08-17.46-22.9-11.75-23.22-8.44-24.84-138.14c-1.89-10.5-11.93-17.47-22.42-15.59L67.86,77.34c-10.5,1.89-17.47,11.93-15.59,22.42l14.34,79.74-33.27,30.46-24.94,52.86L0,301.22v33.41l18.15,19.46,24.13,26.02,18.7,13.92,21.83,9.93,17.2,5.38,8.22,1.68,21.06,117.11c1.89,10.5,11.93,17.47,22.42,15.59l428.37-77.03c10.5-1.89,17.47-11.93,15.59-22.42l-6.57-36.54,19.2-3.76,32.53-31.57,21.14-30.43,5.69-18.54-4.07-27.15Z"/>
    </clipPath>
  </defs>
  <g id="Layer_1-2" data-name="Layer 1">
    <g>
      <g>
        <rect class="cls-3" x="385.24" y="8.49" width="143.86" height="143.86" rx="19.79" ry="19.79" transform="translate(-7.01 82.18) rotate(-10.19)"/>
        <rect class="cls-1" x="222.84" y="37.69" width="143.86" height="143.86" rx="19.79" ry="19.79" transform="translate(-14.75 53.9) rotate(-10.19)"/>
        <rect class="cls-3" x="60.45" y="66.89" width="143.86" height="143.86" rx="19.79" ry="19.79" transform="translate(-22.48 25.62) rotate(-10.19)"/>
        <rect class="cls-1" x="89.66" y="229.29" width="143.86" height="143.86" rx="19.79" ry="19.79" transform="translate(-50.76 33.35) rotate(-10.19)"/>
        <rect class="cls-3" x="252.05" y="200.09" width="143.86" height="143.86" rx="19.79" ry="19.79" transform="translate(-43.03 61.63) rotate(-10.19)"/>
        <rect class="cls-3" x="118.86" y="391.7" width="143.86" height="143.84" rx="19.79" ry="19.79" transform="translate(-79.04 41.09) rotate(-10.19)"/>
        <rect class="cls-1" x="281.25" y="362.5" width="143.86" height="143.84" rx="19.79" ry="19.79" transform="translate(-71.31 69.37) rotate(-10.19)"/>
        <rect class="cls-3" x="443.65" y="333.29" width="143.86" height="143.84" rx="19.79" ry="19.79" transform="translate(-63.58 97.65) rotate(-10.19)"/>
        <rect class="cls-1" x="414.45" y="170.89" width="143.86" height="143.86" rx="19.79" ry="19.79" transform="translate(-35.3 89.92) rotate(-10.19)"/>
      </g>
      <g class="cls-11">
        <g>
          <g>
            <path class="cls-4" d="M310.61,43.01c5.97-2.6,12.62-2.9,19.02-2.34,10.57,1.18,20.75,4.78,30.2,9.55,20.74,10.68,38.7,26.2,53.93,43.76,7.09,8.56,13.95,17.49,18.83,27.53.21.04.63.13.85.17,2.06-3.52,3.54-7.41,3.96-11.48.26-4.18-.26-8.39.29-12.55,2.91,1.45,3.41,4.96,3.96,7.83,1.46,7.69-.6,15.42-2.81,22.75-.17.17-.49.52-.65.69,4.26-.79,8.13-2.95,12.27-4.18,2.47-.63,4.68-2.22,7.26-2.33-5.03,4.23-9.79,8.79-15.03,12.76.07.47.15.94.22,1.42,7.18,3.69,13.08,10.44,14.74,18.47,1.69,6.99.63,14.3-1.31,21.13-2.68,9.26-7,17.95-11.74,26.32-10.82-1.79-22.44,1.88-29.85,10.05-2.66,2.22-3.31,5.76-4.3,8.89-1.35-.82-2.66-1.76-4.17-2.27-4.6,1.96-5.5,7.47-8.68,10.88-.24-.15-.73-.44-.97-.58-.7,1.18-1.4,2.37-2.11,3.54-.16-.38-.47-1.14-.62-1.52,4.51-11.1,9.29-22.1,13.14-33.46,3.51-9.24,7.91-18.13,11.18-27.46,1.72-5.14,3.65-10.57,2.71-16.07-.9-4.28-4.59-7.22-8.35-9-7.2-3.64-15.53-4.83-22.08-9.74-5.09-3.31-8.99-8.44-14.78-10.65-3.62-1.37-7.58-1.61-11.39-1.08-16.03,1.59-31.3,7.51-47.36,8.93-12.28,1.43-24.96-1.42-35.52-7.83-9.95-6.15-18.2-16.21-19.86-28.04,1.39.3,1.44,1.95,2.03,2.99.89,2.62,3.31,4.22,5.5,5.68,3.85,2.37,8.6,1.2,12.63-.03,7.34-2.64,13.29-7.96,20.23-11.39,2.24-1.01,5.11-1.78,7.33-.34,2.8,2.04,4.41,5.25,5.58,8.42,1.9,5.07,1.34,10.74,3.66,15.67,4.82-11.99,8.25-24.63,14.95-35.77.62-1.13,1.7-1.88,2.7-2.66,2.49,2.09,2.98,5.4,3.73,8.37.93,3.63.32,7.43,1.24,11.07.96-.99,1.82-2.08,2.5-3.29,2.26-3.96,4.95-7.75,8.44-10.71,1.7-1.35,3.91-2.79,6.16-1.91,6.13,1.53,9.24,7.52,12.28,12.48,2.71,4.65,6.36,9.53,11.92,10.72,5.27.34,10.57.02,15.85.11-5.66-2.84-10.98-6.32-15.95-10.24-2.71-2.17-4.53-5.19-6.38-8.09-3.26-5.23-4.12-11.5-6.79-17-1.49-3.79-6.45-4.31-9.83-3.09-5.42,1.7-8.69,6.61-12.71,10.24-.89.93-2.21,1.05-3.39,1.28-3.72-6.2-1.93-14.33-6.63-20.13-.71,0-1.41,0-2.11,0-2.56,5.66-5.09,11.42-8.76,16.47-1.8,2.47-4.79,4.96-8.05,3.93-3.78-1.71-4.86-6.09-6.88-9.35-1.13.28-2.28.53-3.31,1.08-4.8,2.62-9,6.17-13.82,8.74-4.16,2.37-9.59,2.46-13.74.03,4.54-7.92,8.91-15.97,14.24-23.4,4.26-5.83,9.59-11.23,16.39-13.98Z"/>
            <path class="cls-4" d="M327.86,165.24c6.01-4.85,13.8-7.39,21.5-7.28,6.83-.37,13.67,2.32,18.75,6.85,4.82,4.26,7.63,10.49,8.32,16.83-2.46-1.43-4.59-3.36-6.94-4.93-6.13-4.27-13.18-7.74-20.76-8.05-7.33-.43-13.91,4.02-21.18,3.96-1.75.13-2.45-1.66-2.96-3,.79-1.66,1.8-3.24,3.28-4.37Z"/>
            <path class="cls-4" d="M264.55,160.9c7.5-3.83,17.5-4.31,24.3,1.24,2.44,2.25,4.68,6.15,2.74,9.36-4.27-.11-7.68-2.88-11.45-4.48-2.95-1.3-6.28-1.29-9.43-.96-4.47.74-7.7,4.26-11.82,5.85-1.08.69-2.04,1.56-3.08,2.31.06-2.17,1.52-3.9,2.58-5.68,1.85-2.7,3.58-5.59,6.17-7.65Z"/>
          </g>
          <g>
            <path class="cls-8" d="M269.48,62.65c3.11-3.07,6.93-5.51,11.19-6.58-1.86,4.18-3.54,8.46-4.1,13.05-.42,3.71-.05,7.9,2.45,10.85.32.14.64.28.96.42,4.15,2.43,9.58,2.34,13.74-.03,4.82-2.57,9.03-6.13,13.82-8.74,1.03-.56,2.18-.8,3.31-1.08,2.02,3.26,3.1,7.64,6.88,9.35,3.26,1.03,6.25-1.45,8.05-3.93,3.67-5.05,6.19-10.81,8.76-16.47.7,0,1.4,0,2.11,0,4.7,5.81,2.91,13.93,6.63,20.13,1.18-.22,2.5-.34,3.39-1.28,4.02-3.63,7.3-8.54,12.71-10.24,3.38-1.22,8.34-.69,9.83,3.09,2.66,5.5,3.53,11.76,6.79,17,1.84,2.89,3.67,5.91,6.38,8.09,4.98,3.92,10.29,7.4,15.95,10.24-5.29-.09-10.58.22-15.85-.11-5.56-1.2-9.21-6.08-11.92-10.72-3.05-4.96-6.15-10.94-12.28-12.48-2.25-.88-4.46.56-6.16,1.91-3.5,2.96-6.18,6.75-8.44,10.71-.68,1.21-1.54,2.3-2.5,3.29-.91-3.63-.31-7.44-1.24-11.07-.75-2.97-1.24-6.28-3.73-8.37-1,.78-2.07,1.53-2.7,2.66-6.7,11.15-10.13,23.79-14.95,35.77-2.32-4.94-1.76-10.61-3.66-15.67-1.16-3.17-2.78-6.38-5.58-8.42-2.23-1.44-5.09-.67-7.33.34-6.94,3.43-12.89,8.75-20.23,11.39-4.03,1.23-8.78,2.39-12.63.03-2.19-1.46-4.61-3.07-5.5-5.68-.59-1.04-.64-2.69-2.03-2.99l-.28-.13c-.22-3.78-1.11-7.53-.66-11.33.73-8.25,3.12-16.78,8.83-23.03Z"/>
            <path class="cls-8" d="M198.94,316.54c2.03-1.5,4.01-3.33,6.63-3.59-1.98,3.52-6.19,5.06-8,8.71-4.94,8.04-10.02,16.06-13.69,24.79-4.58,10.14-7.67,20.95-9.07,32-1.18,11.41,1.12,23.35,7.39,33.05,4.88,8.83,13.25,15.97,23.15,18.36,1.1.18,1.85.89,2.11,1.98-10.11-.95-19.88-4.88-27.79-11.23-1.7-1.5-3.03-3.57-5.31-4.25-.03-.77.33-1.7-.54-2.04l-.17-.13c-.69-2.27-1.38-4.55-1.82-6.87-.93.04-1.85.09-2.78.16-4.66.25-9.28.88-13.94,1.13-1.91.03-3.98,1.01-5.78.13-.55-.88.19-1.74.46-2.56,8.17-18.15,15.94-36.51,22.02-55.47.63-1.64,1.36-3.24,1.91-4.91.72-.22,1.82.23,2.31-.56,1.69-2.42,2.59-5.27,4.12-7.78,4.76-8.13,11.15-15.36,18.79-20.9Z"/>
            <path class="cls-8" d="M421.07,343.84c-.1-.77.44-1.34.87-1.89.96,4.62,1.08,9.45,2.98,13.84,3.91,9.34,8.43,19.37,17.39,24.91,4.66,2.77,9.42,5.64,14.81,6.73,5.39,1.34,10.97,1.32,16.47,1.74,3.06.22,6.11-.24,9.14-.6,3.73,7.12,7.25,14.39,11.92,20.95,2.52,3.44,4.65,7.28,7.8,10.18,2.71.15,6.02-.27,7.5-2.86.4.73.75,1.48,1.13,2.23l.24.52c-2.89.59-5.77,1.18-8.62,1.91-7.94.66-16.09,2.15-23.95.07-4.09,10.2-9.89,19.75-17.65,27.57-10.7,11.33-23.78,20.33-38.05,26.54-8,3.25-16.42,5.27-24.63,7.92-1.61.58-3.36.94-4.74,1.97-4.05,5.41-7.21,11.52-11.87,16.47-2.49,2.73-4.93,5.53-7.72,7.96-17.02,12.26-37.7,18.65-58.37,21.11-14.99,1.98-30.34,1.08-44.99-2.69-10.78-2.39-20.15-8.72-30.68-11.8-.07-.84-.38-1.57-.94-2.17-2.08-2.65-4.64-4.86-6.87-7.37,3.18.32,4.79,3.41,6.78,5.51,2.27,2.91,5.6,5.02,9.3,5.48.19-.2.56-.62.75-.83-1.9-3.36-4.42-6.32-6.18-9.76-3.38-6.46-7.39-12.57-10.82-19-.65-1.22-1.05-2.54-1.39-3.87,1.77,2.04,2.97,4.47,4.49,6.69,3.09,4.55,6.77,8.64,10.61,12.57,4.37,4.88,9.33,9.26,14.73,12.98,2.93,1.84,6.04,3.8,9.6,3.93,3.18.18,6.73.05,9.24-2.19,3.01-2.33,3.93-6.34,3.91-9.97-.07-5.69-2.91-10.98-6.63-15.12-3.26-3.43-7.88-5.25-12.6-5.1,3.15-1.76,6.01-3.96,8.77-6.26-2.87-8.15-7.1-15.85-8.82-24.38-.76-3.21-.72-6.54-1.41-9.76-1.08-.73-2.45-.48-3.67-.48-7.81.59-15.69,1.61-23.07,4.36-4.32,1.61-8.2,4.39-12.79,5.25,1.59-3.38,4.78-5.55,7.61-7.82,12.11-8.49,27.56-11.87,42.16-9.91,10.37.95,20.57,4.04,29.7,9.08,4.26,2.13,7.78,5.38,11.41,8.4,1.1.92,1.9,2.13,2.62,3.36-4.5-1.84-8.79-4.17-13.33-5.9-6.59-2.46-13.41-4.24-20.31-5.54-5.85-1.37-11.89-1.7-17.89-1.39-.52,13.94,6.36,27.97,17.78,36,4.61,3.16,10.19,4.18,15.34,6.12-1.28,1.33-3.24.95-4.9,1.16-3.34.15-6.94.77-9.5,3.11-1.52,1.24-.81,3.34-.44,4.94,1.36,4.7,3.09,9.33,5.56,13.57,1.01,1.79,2.4,3.37,4.1,4.54,4.61,3.26,9.92,6.04,15.72,5.97,5.89-.01,12.32.27,17.4-3.26,3.01-1.89,4.39-5.58,4.33-9.02-.47-5.72-2.31-11.19-4.08-16.61,2.29,1.03,3.03,3.66,4.44,5.54,2.89,4.69,6.19,10.12,12.07,11.25,3.59.28,7.1-1.28,10.14-3.07,11.08-7.22,18.79-18.38,25.22-29.71,3.83-8.15,7.42-16.53,9.15-25.41.61-2.91-.19-6.52-2.65-8.3-6.57-.76-13.24-.24-19.84-.74-10.08-.73-20.17,1.03-30.24.11-1.72-.28-3.94.73-5.26-.72,8.33-.79,16.5-2.66,24.7-4.28,14.03-4,27.73-9.85,39.32-18.85,6.81-5.06,12.46-11.55,17.18-18.56,6.76-9.98,9.55-21.99,11.1-33.78.6-4.93-.66-9.83-.5-14.76.11-2.95-.1-5.89-.08-8.83Z"/>
            <path class="cls-8" d="M266.42,370.2c1.22-.12,2.41-.33,3.63-.47-2.9,4.14-3.72,9.22-5.24,13.94-2.11,6.37-2.49,13.13-3.52,19.72-.71,5,.53,9.94.71,14.91-2.04-1.92-2.29-4.85-2.64-7.47-.83-11.77.33-23.88,5.11-34.76.94-1.86,2.3-3.68,1.94-5.88Z"/>
          </g>
          <g>
            <path class="cls-7" d="M364.34,124.07c3.81-.54,7.77-.3,11.39,1.08,5.79,2.2,9.68,7.33,14.78,10.65,6.55,4.91,14.89,6.1,22.08,9.74,3.76,1.78,7.45,4.72,8.35,9,.94,5.5-.99,10.93-2.71,16.07-3.27,9.33-7.67,18.21-11.18,27.46-3.85,11.36-8.62,22.36-13.14,33.46-1.8,4.13-3.72,8.23-6.28,11.95-3.27,4.98-6.16,10.49-11.12,14.02-5.27,3.82-11.61,5.91-17.95,7.09-3.69.73-7.74.23-10.75-2.15-4.45-3.48-8-7.96-12.54-11.33-8.02-6.15-17.64-9.8-27.42-12.06-.48-.39-.96-.79-1.42-1.18.54-1.56,1.69-3.28.82-4.94-1.61-3.46-4.28-6.23-6.76-9.07-1.96-2.14-2.92-5.01-5.1-6.96,1.15,5.06,4.31,9.3,7.01,13.61.66,1,.89,2.19,1.16,3.33-7.07.03-14.01,1.48-20.93,2.71-3.62.5-7.51,1.24-10.99-.27-2.76-1.12-3.45-4.47-3.3-7.14.05-3.69,2.24-7.08,5.29-9.05,4.46-2.92,9.11-5.81,12.39-10.12,7.07-9.2,10.42-20.64,12.39-31.9-.87.91-1.74,1.86-2.23,3.04-2.62,6.01-4.74,12.26-7.7,18.12-2.31,4-4.05,8.46-7.38,11.76-3.57,3.33-7.95,5.67-11.5,9.03-2.21,1.93-2.91,5.09-5.43,6.73-6.89-.73-13.96.93-19.66,4.89-.09-2.33.43-4.61,1.12-6.81,1.7-6.71,3.77-13.33,5.54-20.02,2.71-8.6,4.4-17.5,7.3-26.05.59-1.98,1.28-3.97,1.45-6.05-.26-.2-.77-.59-1.02-.8,4.12-1.6,7.35-5.11,11.82-5.85,3.15-.33,6.48-.34,9.43.96,3.77,1.6,7.18,4.37,11.45,4.48,1.94-3.21-.3-7.11-2.74-9.36-6.79-5.55-16.8-5.07-24.3-1.24,1.47-4.91,4.09-9.34,6.09-14.04,3.09-6.38,6.04-12.82,9.07-19.23.47-.9,1.12-1.67,1.75-2.46,10.57,6.41,23.25,9.26,35.52,7.83,16.06-1.41,31.33-7.34,47.36-8.93ZM327.86,165.24c-1.48,1.12-2.48,2.71-3.28,4.37.51,1.34,1.21,3.13,2.96,3,7.28.07,13.86-4.39,21.18-3.96,7.57.32,14.63,3.79,20.76,8.05,2.36,1.57,4.49,3.5,6.94,4.93-.69-6.34-3.5-12.57-8.32-16.83-5.07-4.53-11.92-7.22-18.75-6.85-7.7-.11-15.49,2.43-21.5,7.28ZM262.56,192.77c.19,6.37,5.41,13.07,12.17,13.02,3.61.26,7.09-1.58,9.56-4.1,1.82-1.81,2.42-4.43,4.07-6.36-.34-.3-.69-.61-1.02-.91-2.89,2.56-6,5.14-9.94,5.76-5.43.87-10.61-2.04-14.04-6.05-.27-.46-.54-.92-.81-1.37ZM327.39,200.08c1.16,3.79,2.85,7.55,5.66,10.41,2.29,2.23,5.15,3.87,8.21,4.76,5.83,1.64,12.36-.54,16.4-4.96,2.15-2.24,3.19-5.23,4.65-7.92-.24.03-.74.08-.99.1-2.72,2.7-6.21,4.5-9.85,5.64-6.04,1.69-12.78.87-18.02-2.65-2.32-1.44-4.04-3.58-6.07-5.37Z"/>
            <path class="cls-7" d="M108.27,164.51c12.08-3.31,24.39-5.89,36.87-7.03,4.65-.05,9.28-1.06,13.92-.42,5.11.54,10.84.67,14.86,4.34,4.26,3.87,7,9.07,9.75,14.04,2.43,4.21,4.2,8.76,5.85,13.31,1.08,3.16,2.22,6.48,1.72,9.87-.67,3.38-3.34,5.74-5.44,8.27,1.26,2.09,3.07,3.85,3.96,6.15.54,2.61-1.19,5.1-3.2,6.59-2.86,2.21-6.69,3.69-10.31,2.73-5.02-.77-9.73-2.7-14.52-4.26,1.98-2.45,4.1-5.23,7.33-5.98,4.12-.92,8.52-1.44,12.09-3.88,3.7-3.63,4.84-9.15,4.3-14.17-.48-3.88-1.21-8.04-3.96-11.02-1.74,5.39.15,11.09-1.08,16.49-2.73,2.28-6.23,3.87-9.83,3.98.44-4.66,1.02-9.44-.19-14.04-1.24-4.74-2.9-9.54-6.03-13.39.93,5.37,2.81,10.57,2.91,16.08.36,4.78-.19,10.13-3.73,13.7-2.46,2.43-6.07,3.15-9.42,2.98.46-3.61,1.55-7.18,1.3-10.86-.19-5.01-1.76-9.83-3.63-14.44-.78-1.78-1.47-3.8-3.26-4.8,1.72,7.66,4.92,15.54,2.86,23.48-1.53,7.03-9.61,12.09-16.52,9.41-3.9-.92-6.17-5.21-5.69-9,.54-2.06,1.64-3.92,2.21-5.97-3,1.6-5.84,3.75-9.32,4.18-5.59.69-11.37-1.35-15.42-5.25-3.18-2.6-5.6-6.09-9.13-8.25,2.64,7.05,6.29,14.17,5.6,21.94-.76,7.98-5.26,14.92-7.39,22.53-.92,3.21.04,6.5.82,9.63,1.53,6.36,3.35,12.75,3.3,19.35.03,14.97-5.4,29.27-12.09,42.45-1.47,3.27-3.65,6.17-4.97,9.51.98-.5,2.03-.96,2.77-1.82,5.28-5.86,9.81-12.36,13.97-19.06,1.59-2.5,2.68-5.25,3.9-7.93-.09.62-.26,1.86-.34,2.47.82-.05,1.68-.03,2.41-.46,6.2-3.09,12.43-6.4,19.29-7.75,15.18-3.3,32.07-.1,44.19,9.88,1.71,1.37,3.52,2.72,4.61,4.67.35-.08.71-.16,1.06-.23,3.4,5.29,4.19,11.68,4.43,17.84-.22,11.99-2.59,23.8-5.39,35.42-.55,1.67-1.28,3.27-1.91,4.91-5.39.38-10.63,1.94-16.05,2.1-7.62.26-15.34.55-22.85-1.05-8.14-1.17-15.8-4.59-22.65-9.06-7.96-5.2-12.41-13.9-17.54-21.59.02,1.02.02,2.06.29,3.06,1.66,5.63,3.74,11.21,7.23,15.99,8.76,12.55,22.46,20.48,36.46,25.92-3.55,5.05-7.24,10.88-13.41,12.92-6.22,1.35-12.69-.21-18.5-2.49-9.69-3.96-18.64-9.56-26.81-16.08-2.87-2.43-5.91-4.73-8.27-7.7,4.04-2.82,7.12-6.69,10.77-9.96-8.61,1.21-17.08,3.69-25.84,3.61-8.24.32-16.7-.39-24.33-3.72-3.34-1.72-6.94-3.55-8.93-6.89-2.45-4.1-3.56-8.99-3.17-13.74,2.66,1.84,4.59,4.46,6.91,6.67,2.01,1.85,3.59,4.53,6.51,4.99-.36-2.81-2.04-5.15-3.24-7.64-4.4-8.78-6.74-18.47-7.95-28.18-1-10.14-.05-20.37,1.46-30.42,1.24-7.61,4.04-14.82,6.63-22.04.92-2.64,2.48-5.07,2.7-7.91.1-.87.69-1.56,1.13-2.28,8.46-12.63,18.87-23.78,28.96-35.09,8.49-8.72,16.86-17.62,26.34-25.28,5.89-5.07,13.12-8.31,20.58-10.34ZM124.14,187.44c1.91,1.24,4.38,1.51,6.01,3.2,2.07,2.01,3.67,4.45,4.92,7.04.7,1.24,1.24,2.91,2.83,3.26-.25-4.03-.61-8.39-2.97-11.8-2.27-3.54-7.45-3.48-10.78-1.7Z"/>
            <path class="cls-7" d="M492.03,158.37c7.48-2.65,15.52-1.46,23.21-.63,14.64,2.01,28.96,5.87,42.99,10.45,5.68,1.83,11.17,4.35,16.01,7.88,8.39,6.52,15.77,14.18,23.18,21.77,11.39,12.26,22.49,24.87,32.16,38.54,1.2,2.06,3.05,3.86,3.67,6.2.41,3.45,2.6,6.31,3.59,9.59,2.68,8.19,5.76,16.34,6.88,24.93.68,5.79,1.75,11.56,1.61,17.41.44,13.63-2.03,27.41-7.61,39.88-1.13,2.64-2.49,5.18-3.57,7.84,6.03-2.83,9.63-8.68,13.96-13.47,1.69,3.77,1.98,8.29-.08,11.98-2.79,5.4-8.52,8.26-13.9,10.49-5.47,2.03-11.29,3.04-17.09,3.5-5.32.42-10.62-.38-15.89-.92-5.82-.61-11.46-2.28-17.24-3.15,3.45,3.09,6.4,6.7,10.02,9.61-4.35,6.08-10.37,10.78-16.56,14.89-8.86,5.58-18.28,10.71-28.64,12.79-3.23.36-6.61.65-9.77-.2-5.9-2.42-9.58-7.94-13.41-12.75,2.49-2.02,5.56-3.03,8.41-4.41,9.79-4.82,19.43-10.53,26.74-18.78,3.19-3.79,6.2-7.87,7.79-12.63.99-3.09,2.85-6.09,2.52-9.45-3.56,6.71-8.32,12.76-14.07,17.72-8.83,7.27-19.9,11.34-31.1,13.17-7.18,1.32-14.54,1.07-21.79.52-7.43-.39-14.69-2.15-21.94-3.73-.94-5.51-.96-11.11-1.22-16.67.15-11.8.59-23.81,4.24-35.14.89-2.85,2.15-5.58,3.91-7.99-.2-.17-.61-.53-.81-.71,2.29-.36,3.48-2.49,5.22-3.77,7.84-6.3,17.91-9.13,27.75-10.36,4.86-.76,9.8-.28,14.62.48,8.23,2.02,16.05,5.39,23.95,8.41.1-.32.3-.96.4-1.29,3.7,8.34,8.85,16.08,15.36,22.49,1.63,1.78,3.21,3.63,5.29,4.9-4-7.08-7.78-14.31-10.78-21.89-2.98-7.94-5.07-16.23-6.17-24.63-.24-7.47-.71-15.15,1.53-22.39.99-3.59,3.2-7.24,1.86-11.07-2.43-7.63-5.83-14.97-7.47-22.84-.98-4.68-.5-9.59,1.25-14.04,1.26-3.73,3.44-7.09,4.53-10.89-4.59,3.34-7.99,8.2-13.13,10.84-4.81,2.89-10.87,3.07-16.07,1.19-2.41-1.02-4.41-2.76-6.69-4.03,1.22,2.39,3.54,4.59,3.08,7.49-.13,4.43-4.1,7.7-8.16,8.59-4.78.85-10.11-1.39-12.5-5.7-2.97-4.85-2.59-10.83-1.93-16.24.42-3.91,1.6-7.66,2.36-11.5-2.32,1.92-3.37,4.83-4.47,7.54-1.58,3.95-2.42,8.23-2.16,12.49.1,2.82.68,5.62.57,8.45-5.35,1.8-10.94-2.86-12.13-8-1.89-8.48.99-16.98,3.09-25.13-2.83,2.37-4.24,5.89-5.7,9.18-2.64,5.95-1.11,12.59-1.96,18.86-3.79.01-7.74-1.91-9.85-5.07-1.26-5.31-.41-10.88-.58-16.29-.74.78-1.59,1.52-1.97,2.55-2.13,5.58-2.68,11.68-2.03,17.6.37,2.42,1.35,5.02,3.49,6.4,4.08,2.18,8.97,1.69,13.21,3.4,2.42,1.72,3.99,4.35,5.98,6.53.93-.05,1.88-.08,2.83-.11l.56.22c-4.9.72-9.65,2.16-14.44,3.35-4.74,1.24-9.94.4-14.15-2.09-1.88-1.04-3.15-3.19-3.04-5.35-.11-3.33,2.46-5.81,3.81-8.64-2.94-2.15-4.61-5.62-4.9-9.2.5-4.48,1.31-8.98,3.18-13.12,2.66-5.87,5.76-11.58,9.56-16.79,2.92-3.63,6.09-7.39,10.57-9.09ZM526.71,191.68c-1.96,3.35-2.85,7.3-2.8,11.16,2.5-2.46,4.15-5.6,6.37-8.29,2.13-2.42,5.54-2.99,7.88-5.13-3.62-1.88-9.26-1.72-11.45,2.26Z"/>
            <path class="cls-7" d="M414.76,212.57c7.41-8.17,19.03-11.84,29.85-10.05,4.77,5.99,7.16,13.97,5.74,21.56-1.05,8.62-5.6,16.37-11.13,22.88-5.59,6.15-12.52,11.45-20.57,13.8-.12.68-.24,1.37-.35,2.06-.13-.48-.38-1.43-.52-1.9-3.98-1.93-8.75-2.44-12.1-5.55-.5-1.01-.4-2.19-.47-3.27,2.07-10.16,2.68-20.58,5.24-30.63.99-3.14,1.64-6.67,4.3-8.89ZM433.26,215.84c-7.51,2.89-12.48,9.87-16.53,16.49-1.35,2.97-3.66,5.48-4.51,8.66,3.44-1.71,4.71-5.88,8.07-7.63.77,6.55-1.41,12.99-1.26,19.55,2.47-.89,3.64-3.49,4.64-5.72,1.54-3.85,3.07-8.33,1.22-12.34-.52-1.65-1.87-3.22-1.64-4.99,3.51-3.17,7.09-6.26,10.56-9.48,1.47-1.43,3.48-2.22,4.82-3.79-.64-2-3.72-.99-5.35-.74Z"/>
            <path class="cls-7" d="M245.93,246.63c3.87-1.41,8.43-.24,11.54,2.37,2.62,2.2,5,4.7,7.78,6.72,5,3.42,10.92,5.11,16.79,6.31,5.24.88,10.51,1.73,15.85,1.8,8.25.24,16.62.4,24.71-1.47,1.37,2.8,1.31,6,1.37,9.04.07,4.2-1.55,8.6-4.95,11.21-4.3,3.36-9.97,3.87-15.22,4.16-2.52-.19-5.52-.07-7.41-2.06-2.35-2.5-3.34-6.24-6.5-7.96-6.59-3.89-14.45-3.84-21.83-4.58-4.5-2.69-8.58-6.04-12.77-9.18-2.23-1.93-4.96-3.44-6.41-6.09-1.83-3.13-2.32-6.78-2.95-10.29Z"/>
          </g>
          <g>
            <path class="cls-9" d="M164.4,176.08c3.13,3.85,4.79,8.65,6.03,13.39,1.2,4.61.63,9.38.19,14.04,3.59-.11,7.1-1.7,9.83-3.98,1.22-5.39-.66-11.1,1.08-16.49,2.75,2.98,3.48,7.14,3.96,11.02.54,5.02-.6,10.55-4.3,14.17-3.57,2.44-7.98,2.96-12.09,3.88-3.23.75-5.36,3.53-7.33,5.98-2.83-.83-5.73-1.37-8.63-1.83-3.88-.63-7.44,1.51-11.22,1.95-4.31.83-9.17.68-12.87-1.96-3.19-2.2-4.26-6.28-4.7-9.93-3.43-.01-6.87.01-10.3.02-4.52,8.87-9.06,17.74-13.4,26.7,3.34,7,4.83,14.72,5.81,22.37.69,9.56.53,19.47-2.97,28.53-1.22,2.68-2.31,5.43-3.9,7.93-4.16,6.7-8.69,13.2-13.97,19.06-.74.85-1.78,1.32-2.77,1.82,1.32-3.34,3.5-6.24,4.97-9.51,6.69-13.18,12.11-27.48,12.09-42.45.05-6.61-1.76-12.99-3.3-19.35-.78-3.13-1.74-6.42-.82-9.63,2.13-7.61,6.63-14.56,7.39-22.53.69-7.76-2.96-14.89-5.6-21.94,3.53,2.17,5.95,5.65,9.13,8.25,4.04,3.9,9.83,5.95,15.42,5.25,3.48-.42,6.32-2.58,9.32-4.18-.57,2.05-1.67,3.91-2.21,5.97-.48,3.79,1.79,8.08,5.69,9,6.91,2.68,14.99-2.38,16.52-9.41,2.06-7.94-1.14-15.82-2.86-23.48,1.79,1,2.48,3.03,3.26,4.8,1.88,4.61,3.44,9.43,3.63,14.44.25,3.68-.85,7.25-1.3,10.86,3.35.17,6.96-.55,9.42-2.98,3.54-3.57,4.09-8.93,3.73-13.7-.09-5.51-1.98-10.71-2.91-16.08Z"/>
            <path class="cls-9" d="M491.77,185.22c1.46-3.28,2.86-6.81,5.7-9.18-2.1,8.15-4.98,16.65-3.09,25.13,1.19,5.13,6.77,9.79,12.13,8,.11-2.83-.48-5.63-.57-8.45-.26-4.26.58-8.54,2.16-12.49,1.1-2.71,2.15-5.62,4.47-7.54-.76,3.84-1.94,7.59-2.36,11.5-.66,5.41-1.04,11.39,1.93,16.24,2.39,4.31,7.71,6.55,12.5,5.7,4.06-.89,8.03-4.16,8.16-8.59.46-2.9-1.86-5.11-3.08-7.49,2.27,1.27,4.28,3.01,6.69,4.03,5.2,1.88,11.26,1.7,16.07-1.19,5.14-2.64,8.54-7.49,13.13-10.84-1.08,3.8-3.27,7.16-4.53,10.89-1.74,4.44-2.23,9.35-1.25,14.04,1.63,7.86,5.04,15.21,7.47,22.84,1.33,3.83-.87,7.47-1.86,11.07-2.24,7.24-1.78,14.92-1.53,22.39,1.1,8.4,3.19,16.69,6.17,24.63,3.01,7.57,6.78,14.81,10.78,21.89-2.08-1.26-3.67-3.12-5.29-4.9-6.51-6.42-11.66-14.15-15.36-22.49-4.24-10.84-4.53-22.78-2.98-34.19.5-6.21,2.68-12.2,5.25-17.84-2.39-6.83-7.1-12.52-10.43-18.88-1.96-3.23-3.07-6.85-4.18-10.44-3.27,0-6.54-.04-9.81-.22-.32,4-1.61,8.52-5.47,10.47-6.56,3.5-14.42,1.01-20.53-2.31-3.81-.19-7.34,1.82-11.13,2.09-.95.03-1.9.06-2.83.11-1.99-2.17-3.56-4.8-5.98-6.53-4.24-1.71-9.13-1.22-13.21-3.4-2.14-1.38-3.12-3.98-3.49-6.4-.65-5.91-.11-12.02,2.03-17.6.38-1.03,1.23-1.77,1.97-2.55.17,5.41-.68,10.98.58,16.29,2.1,3.17,6.06,5.09,9.85,5.07.85-6.27-.67-12.91,1.96-18.86Z"/>
            <path class="cls-9" d="M296.18,181.11c.5-1.18,1.37-2.13,2.23-3.04-1.97,11.26-5.32,22.7-12.39,31.9-3.28,4.31-7.93,7.2-12.39,10.12-3.05,1.97-5.24,5.36-5.29,9.05-.15,2.66.54,6.02,3.3,7.14,3.48,1.51,7.37.77,10.99.27,6.93-1.23,13.86-2.68,20.93-2.71-.28-1.14-.5-2.33-1.16-3.33-2.7-4.31-5.86-8.55-7.01-13.61,2.18,1.95,3.15,4.82,5.1,6.96,2.48,2.83,5.15,5.61,6.76,9.07.87,1.66-.28,3.38-.82,4.94.46.4.94.79,1.42,1.18-2.89-.61-5.75-1.39-8.7-1.66-3.44-.29-6.44,1.72-9.66,2.57-6.34,2.11-13.8,3.08-19.82-.49-4.34-2.44-5.15-8.22-3.97-12.65-.39-.02-1.16-.05-1.55-.07,2.52-1.65,3.22-4.8,5.43-6.73,3.56-3.36,7.93-5.7,11.5-9.03,3.33-3.3,5.07-7.76,7.38-11.76,2.96-5.86,5.09-12.11,7.7-18.12Z"/>
            <path class="cls-9" d="M124.14,187.44c3.34-1.78,8.51-1.84,10.78,1.7,2.36,3.41,2.72,7.76,2.97,11.8-1.59-.34-2.13-2.02-2.83-3.26-1.24-2.59-2.85-5.03-4.92-7.04-1.63-1.69-4.1-1.96-6.01-3.2Z"/>
            <path class="cls-9" d="M526.71,191.68c2.19-3.98,7.83-4.14,11.45-2.26-2.34,2.14-5.75,2.71-7.88,5.13-2.22,2.69-3.87,5.83-6.37,8.29-.06-3.87.83-7.81,2.8-11.16Z"/>
            <path class="cls-9" d="M433.26,215.84c1.63-.25,4.71-1.26,5.35.74-1.33,1.57-3.34,2.37-4.82,3.79-3.47,3.22-7.05,6.32-10.56,9.48-.23,1.76,1.12,3.34,1.64,4.99,1.86,4.01.32,8.5-1.22,12.34-1,2.23-2.17,4.83-4.64,5.72-.15-6.55,2.04-12.99,1.26-19.55-3.36,1.75-4.63,5.92-8.07,7.63.85-3.18,3.16-5.7,4.51-8.66,4.05-6.63,9.02-13.61,16.53-16.49Z"/>
            <path class="cls-9" d="M31.26,237.5c-.22,2.84-1.78,5.27-2.7,7.91-2.6,7.22-5.4,14.43-6.63,22.04-1.51,10.05-2.46,20.27-1.46,30.42,1.21,9.71,3.55,19.39,7.95,28.18,1.2,2.49,2.88,4.82,3.24,7.64-2.91-.46-4.5-3.14-6.51-4.99-2.33-2.21-4.26-4.83-6.91-6.67-.39,4.76.72,9.65,3.17,13.74,1.99,3.34,5.6,5.17,8.93,6.89,7.63,3.33,16.09,4.04,24.33,3.72,8.76.08,17.23-2.4,25.84-3.61-3.65,3.26-6.73,7.14-10.77,9.96,2.36,2.97,5.39,5.27,8.27,7.7,8.17,6.52,17.11,12.12,26.81,16.08,5.81,2.28,12.28,3.84,18.5,2.49,6.17-2.04,9.86-7.87,13.41-12.92-14-5.44-27.71-13.37-36.46-25.92-3.49-4.78-5.57-10.36-7.23-15.99-.27-1-.27-2.04-.29-3.06,5.13,7.68,9.58,16.39,17.54,21.59,6.85,4.47,14.5,7.89,22.65,9.06,7.51,1.6,15.23,1.31,22.85,1.05,5.42-.16,10.66-1.72,16.05-2.1-6.07,18.96-13.85,37.33-22.02,55.47-.28.82-1.01,1.68-.46,2.56,1.8.88,3.87-.11,5.78-.13,4.66-.25,9.28-.88,13.94-1.13-2.16.52-4.38.77-6.59.99-5.53.32-11.05,1.19-16.61.77-9.99.29-19.93-1.1-29.71-3.01-23.66-4.84-45.51-16.56-64.16-31.71-8.03-6.46-15.15-13.94-22.36-21.28-6.34-6.85-13.08-13.41-18.44-21.08-2.13-3.75-3.73-8.39-2.11-12.63,1.16-4.06,4.46-6.92,6.81-10.28.91-1.2.73-2.76.56-4.16-.47-3.07-.3-6.18-.79-9.24-.71-5.31,0-10.66.68-15.93,1.86-11.72,5.64-23.06,10.35-33.93,1.29-2.95,2.72-5.84,4.57-8.48Z"/>
            <path class="cls-9" d="M636.84,252.18c-.98-3.28-3.18-6.14-3.59-9.59,4.67,6.91,7.63,14.81,10.52,22.59,3.32,9.48,5.61,19.35,6.41,29.37.52,6.63-.93,13.24-.23,19.86.36,1.59,1.78,2.58,2.79,3.77,4.3,4.92,6.94,11.79,5.13,18.3-2.02,6.55-6.75,11.75-11.21,16.76-9.81,10.08-20.53,19.24-31.63,27.86-12.65,9.75-25.72,19.26-40.51,25.51-10.69,4.73-21.97,8.23-33.56,9.85-9.75,1.6-19.59,2.33-29.4,3.34l-.48-.71c-.38-.75-.73-1.51-1.13-2.23-1.92-2.27-4.22-4.18-6.17-6.42-2.82-3.23-5.1-6.88-7.26-10.57-7.62-12.97-12.34-27.55-14.42-42.42,7.25,1.58,14.51,3.34,21.94,3.73,7.25.55,14.6.8,21.79-.52,11.2-1.83,22.27-5.9,31.1-13.17,5.76-4.96,10.52-11.02,14.07-17.72.33,3.36-1.53,6.36-2.52,9.45-1.59,4.76-4.6,8.83-7.79,12.63-7.31,8.25-16.95,13.96-26.74,18.78-2.85,1.37-5.92,2.39-8.41,4.41,3.83,4.8,7.51,10.33,13.41,12.75,3.17.85,6.54.56,9.77.2,10.36-2.08,19.78-7.22,28.64-12.79,6.18-4.11,12.21-8.81,16.56-14.89-3.63-2.91-6.57-6.52-10.02-9.61,5.78.87,11.42,2.54,17.24,3.15,5.27.54,10.57,1.33,15.89.92,5.8-.46,11.62-1.47,17.09-3.5,5.37-2.23,11.11-5.09,13.9-10.49,2.06-3.69,1.77-8.21.08-11.98-4.32,4.78-7.93,10.63-13.96,13.47,1.08-2.66,2.44-5.2,3.57-7.84,5.58-12.47,8.04-26.25,7.61-39.88.15-5.85-.93-11.62-1.61-17.41-1.12-8.59-4.2-16.74-6.88-24.93Z"/>
            <path class="cls-9" d="M397.93,286.96c3.11-11.47,5.13-23.19,7.29-34.86.07,1.08-.03,2.26.47,3.27,3.35,3.11,8.12,3.62,12.1,5.55.13.48.39,1.43.52,1.9-.32,2.41-.51,4.83-.5,7.26-.14,8.16-2.31,16.16-2.19,24.32.52-.07,1.53-.21,2.04-.28-8.72,5.67-16.91,12.1-25.27,18.28-3.38,2.46-6.4,5.41-9.98,7.59,7.48-9.73,12.44-21.21,15.53-33.03Z"/>
          </g>
          <g>
            <path class="cls-10" d="M262.56,192.77c.26.45.54.91.81,1.37,3.44,4.02,8.61,6.92,14.04,6.05,3.94-.62,7.05-3.2,9.94-5.76.33.3.67.6,1.02.91-1.65,1.92-2.25,4.55-4.07,6.36-2.47,2.52-5.95,4.36-9.56,4.1-6.76.05-11.98-6.65-12.17-13.02Z"/>
            <path class="cls-10" d="M327.39,200.08c2.02,1.79,3.75,3.93,6.07,5.37,5.24,3.52,11.98,4.34,18.02,2.65,3.63-1.14,7.12-2.93,9.85-5.64.25-.02.75-.07.99-.1-1.45,2.69-2.49,5.68-4.65,7.92-4.04,4.42-10.57,6.6-16.4,4.96-3.06-.9-5.93-2.54-8.21-4.76-2.81-2.86-4.51-6.61-5.66-10.41Z"/>
          </g>
          <path class="cls-6" d="M397.61,230.08c3.17-3.41,4.08-8.92,8.68-10.88,1.51.51,2.81,1.45,4.17,2.27-2.56,10.06-3.17,20.48-5.24,30.63-2.16,11.67-4.18,23.39-7.29,34.86-3.09,11.82-8.05,23.31-15.53,33.03-6.3,5.62-11.16,12.75-17.99,17.81-5.43,3.71-10.55,7.94-16.5,10.84-23.46,13.82-50.7,20.86-77.87,21.09-1.22.14-2.41.35-3.63.47-5.67,1-10-3.22-14-6.5-3.87-2.68-6.73-6.46-10.26-9.52-3.87-3.43-7.63-6.98-11.23-10.7-1.67-1.7-2.97-3.73-4.06-5.83-2.99-5.52-6.3-11.09-7.34-17.38-.42-2.64-1.41-5.19-1.36-7.9-.02-4.18-.14-8.39.63-12.51.79-4.51,1.15-9.1,2.29-13.54,3.32-13.36,8.19-26.31,13.78-38.87,2.67-5.56,5.37-11.29,9.63-15.83,5.71-3.96,12.77-5.62,19.66-4.89.38.01,1.16.05,1.55.07-1.18,4.43-.37,10.21,3.97,12.65,6.02,3.57,13.47,2.6,19.82.49,3.22-.85,6.22-2.86,9.66-2.57,2.95.26,5.81,1.05,8.7,1.66,9.77,2.26,19.39,5.91,27.42,12.06,4.54,3.36,8.09,7.85,12.54,11.33,3.01,2.38,7.06,2.88,10.75,2.15,6.34-1.18,12.69-3.27,17.95-7.09,4.96-3.53,7.85-9.05,11.12-14.02,2.56-3.72,4.48-7.82,6.28-11.95.15.38.46,1.14.62,1.52.71-1.18,1.41-2.36,2.11-3.54.24.15.73.44.97.58ZM245.93,246.63c.63,3.51,1.12,7.16,2.95,10.29,1.45,2.65,4.18,4.16,6.41,6.09,4.19,3.14,8.27,6.49,12.77,9.18,7.38.74,15.24.69,21.83,4.58,3.16,1.72,4.14,5.46,6.5,7.96,1.88,1.99,4.88,1.86,7.41,2.06,5.25-.3,10.92-.81,15.22-4.16,3.4-2.61,5.02-7.01,4.95-11.21-.05-3.04,0-6.24-1.37-9.04-8.09,1.87-16.46,1.7-24.71,1.47-5.33-.07-10.61-.93-15.85-1.8-5.87-1.2-11.79-2.89-16.79-6.31-2.78-2.02-5.15-4.52-7.78-6.72-3.11-2.62-7.67-3.79-11.54-2.37Z"/>
          <path class="cls-5" d="M417.65,294.12c9.4-5.94,20.47-9.13,31.6-9.05l.51.36c11.84.21,23.16,4.41,33.84,9.22,1.55.74,3.28,1.18,4.64,2.27.2.18.61.54.81.71-1.76,2.41-3.03,5.14-3.91,7.99-3.65,11.33-4.1,23.34-4.24,35.14.25,5.56.27,11.16,1.22,16.67,2.08,14.87,6.8,29.44,14.42,42.42,2.15,3.69,4.43,7.34,7.26,10.57,1.95,2.24,4.26,4.15,6.17,6.42-1.48,2.59-4.79,3.01-7.5,2.86-3.16-2.91-5.28-6.74-7.8-10.18-4.67-6.57-8.19-13.84-11.92-20.95-3.03.36-6.08.83-9.14.6-5.5-.42-11.08-.4-16.47-1.74-5.39-1.1-10.15-3.96-14.81-6.73-8.96-5.54-13.47-15.57-17.39-24.91-1.9-4.39-2.02-9.22-2.98-13.84-.44.55-.97,1.12-.87,1.89-.02,2.94.19,5.89.08,8.83-.17,4.93,1.1,9.83.5,14.76-1.55,11.79-4.34,23.8-11.1,33.78-4.72,7.01-10.37,13.51-17.18,18.56-11.59,9.01-25.29,14.85-39.32,18.85-8.2,1.62-16.37,3.5-24.7,4.28,1.31,1.45,3.54.44,5.26.72,10.07.92,20.16-.85,30.24-.11,6.6.5,13.27-.02,19.84.74,2.46,1.78,3.26,5.39,2.65,8.3-1.72,8.88-5.31,17.27-9.15,25.41-6.42,11.33-14.13,22.49-25.22,29.71-3.05,1.78-6.55,3.34-10.14,3.07-5.88-1.12-9.18-6.55-12.07-11.25-1.41-1.88-2.15-4.51-4.44-5.54,1.77,5.42,3.61,10.88,4.08,16.61.06,3.44-1.32,7.13-4.33,9.02-5.07,3.54-11.5,3.25-17.4,3.26-5.8.07-11.11-2.72-15.72-5.97-1.7-1.17-3.09-2.75-4.1-4.54-2.46-4.24-4.2-8.87-5.56-13.57-.37-1.6-1.08-3.71.44-4.94,2.56-2.33,6.16-2.95,9.5-3.11,1.66-.21,3.61.17,4.9-1.16-5.15-1.94-10.73-2.96-15.34-6.12-11.42-8.03-18.3-22.06-17.78-36,5.99-.31,12.03.02,17.89,1.39,6.91,1.3,13.72,3.08,20.31,5.54,4.55,1.73,8.83,4.06,13.33,5.9-.73-1.23-1.52-2.44-2.62-3.36-3.63-3.02-7.16-6.26-11.41-8.4-9.13-5.04-19.32-8.13-29.7-9.08-14.6-1.96-30.05,1.41-42.16,9.91-2.82,2.27-6.02,4.44-7.61,7.82,4.59-.86,8.46-3.65,12.79-5.25,7.38-2.75,15.26-3.77,23.07-4.36,1.22,0,2.59-.26,3.67.48.69,3.22.65,6.55,1.41,9.76,1.72,8.53,5.95,16.23,8.82,24.38-2.76,2.31-5.62,4.51-8.77,6.26,4.72-.15,9.34,1.67,12.6,5.1,3.73,4.14,6.57,9.43,6.63,15.12.02,3.63-.91,7.64-3.91,9.97-2.5,2.25-6.06,2.37-9.24,2.19-3.56-.13-6.67-2.09-9.6-3.93-5.4-3.72-10.35-8.1-14.73-12.98-3.83-3.93-7.52-8.02-10.61-12.57-1.53-2.21-2.72-4.65-4.49-6.69.34,1.33.74,2.65,1.39,3.87,3.42,6.44,7.43,12.54,10.82,19,1.76,3.44,4.28,6.4,6.18,9.76-.19.2-.56.62-.75.83-3.7-.46-7.04-2.56-9.3-5.48-1.99-2.1-3.6-5.19-6.78-5.51l-.41-.09c-4.74-4.67-9.08-9.71-13.64-14.55-9.02-9.26-18.33-18.31-26.27-28.55-7.92-10.2-13.58-22.17-16.33-34.79-.98-4.87-2.14-9.82-1.77-14.81.87.34.51,1.28.54,2.04,2.27.68,3.61,2.75,5.31,4.25,7.91,6.36,17.68,10.28,27.79,11.23-.26-1.08-1.01-1.8-2.11-1.98-9.91-2.39-18.27-9.54-23.15-18.36-6.28-9.69-8.57-21.63-7.39-33.05,1.4-11.04,4.49-21.85,9.07-32,3.67-8.73,8.76-16.75,13.69-24.79,1.81-3.65,6.02-5.19,8-8.71-2.62.26-4.61,2.09-6.63,3.59-7.64,5.54-14.02,12.77-18.79,20.9-1.53,2.51-2.43,5.37-4.12,7.78-.48.79-1.59.34-2.31.56,2.8-11.62,5.17-23.43,5.39-35.42-.24-6.16-1.02-12.55-4.43-17.84,10.24-4.57,21.37-7.24,32.62-6.94,4.61-.16,9.17.63,13.77.75-1.14,4.44-1.5,9.03-2.29,13.54-.77,4.12-.65,8.33-.63,12.51-.05,2.7.94,5.25,1.36,7.9,1.04,6.29,4.35,11.85,7.34,17.38,1.1,2.11,2.39,4.13,4.06,5.83,3.59,3.71,7.35,7.27,11.23,10.7,3.53,3.05,6.4,6.83,10.26,9.52,4,3.27,8.33,7.49,14,6.5.36,2.2-1,4.02-1.94,5.88-4.78,10.88-5.95,23-5.11,34.76.35,2.62.61,5.54,2.64,7.47-.19-4.98-1.43-9.92-.71-14.91,1.02-6.59,1.4-13.35,3.52-19.72,1.52-4.72,2.34-9.8,5.24-13.94,27.17-.22,54.4-7.26,77.87-21.09,5.95-2.9,11.07-7.13,16.5-10.84,6.83-5.06,11.68-12.19,17.99-17.81,3.58-2.19,6.6-5.13,9.98-7.59,8.36-6.18,16.55-12.61,25.27-18.28Z"/>
        </g>
      </g>
    </g>
  </g>
</svg>